<?xml version="1.0" encoding="UTF-8" standalone="no"?>
<svg width="1225px" height="191px" viewBox="0 0 1225 191" version="1.1" xmlns="http://www.w3.org/2000/svg" xmlns:xlink="http://www.w3.org/1999/xlink">
    <!-- Generator: Sketch 3.6.1 (26313) - http://www.bohemiancoding.com/sketch -->
    <title>use_on_light_bg</title>
    <desc>Created with Sketch.</desc>
    <defs></defs>
    <g id="Page-1" stroke="none" stroke-width="1" fill="none" fill-rule="evenodd">
        <g id="use_on_light_bg" transform="translate(3.000000, 4.000000)">
            <g id="Group-3-Copy-2" stroke="#FF9900">
                <path d="M113.970198,33.988452 L113.970198,100.957792 L57.2332491,134.446244 L0.5,100.957792 L0.5,33.988452 L57.2332491,0.5 C76.1443321,11.664078 95.0591145,22.8243741 113.970198,33.988452 L113.970198,33.988452 Z" id="Shape-Copy-9" stroke-width="7"></path>
                <path d="M195.94251,81.9072246 L195.94251,148.876565 L139.205562,182.365017 L82.4723127,148.876565 L82.4723127,81.9072246 L139.205562,48.4187726 C158.116645,59.5828505 177.031427,70.7431466 195.94251,81.9072246 L195.94251,81.9072246 Z" id="Shape-Copy-9" stroke-width="7"></path>
                <g id="Group-5" opacity="0.9" transform="translate(4.000000, 35.000000)">
                    <path d="M0.0554199219,32.0483398 L53.2631836,0.6328125 L106.4375,32.0251465" id="Path-56" transform="translate(53.246460, 16.340576) scale(1, -1) translate(-53.246460, -16.340576) "></path>
                    <path d="M53,31.730011 L53,97.3900146" id="Path-57"></path>
                </g>
                <g id="Group-6" opacity="0.9" transform="translate(86.000000, 83.000000)">
                    <path d="M0.0554199219,32.0483398 L53.2631836,0.6328125 L106.4375,32.0251465" id="Path-56" transform="translate(53.246460, 16.340576) scale(1, -1) translate(-53.246460, -16.340576) "></path>
                    <path d="M53,31.730011 L53,97.3900146" id="Path-57"></path>
                </g>
            </g>
            <path d="M286.698358,33.5537598 C290.53864,33.5537598 294.082939,34.1308017 297.327509,35.2848855 C300.572079,36.4352223 303.367055,38.162601 305.704944,40.4670216 C308.042832,42.7714422 309.859941,45.6529047 311.148778,49.1076621 C312.44136,52.5624194 313.089525,56.5979657 313.089525,61.2030599 C313.089525,66.9997081 312.19783,72.7588861 310.418187,78.4843409 C308.638544,84.2097956 306.000926,89.3582084 302.512826,93.9333264 C299.02098,98.5046973 294.656171,102.225494 289.422148,105.088221 C284.184378,107.950948 278.077393,109.382312 271.0937,109.382312 C267.185979,109.382312 263.626693,108.80527 260.412096,107.651186 C257.201245,106.500849 254.428749,104.773471 252.087114,102.46905 C249.749225,100.16463 247.935863,97.2831671 246.64328,93.8284097 C245.350697,90.3736523 244.706279,86.338106 244.706279,81.7330118 C244.706279,76.0075571 245.579241,70.2633672 247.325164,64.5041892 C249.067341,58.7450113 251.704959,53.5778633 255.230525,49.0027453 C258.756091,44.4313744 263.135886,40.7105782 268.373656,37.8478509 C273.607679,34.9851235 279.718411,33.5537598 286.698358,33.5537598 L286.698358,33.5537598 Z M272.142752,100.584296 C276.81853,100.584296 281.044713,99.4489477 284.81381,97.1782504 C288.582906,94.9113 291.77877,91.958644 294.393908,88.3315235 C297.012793,84.7006559 299.02098,80.6163983 300.418468,76.0750036 C301.812209,71.5373558 302.512826,66.9997081 302.512826,62.4620604 C302.512826,56.2457454 301.167791,51.3408892 298.47772,47.7474919 C295.791396,44.1503475 291.516507,42.3517753 285.649305,42.3517753 C280.902342,42.3517753 276.661172,43.487124 272.929542,45.7578214 C269.194165,48.0247717 266.017034,50.9774277 263.398149,54.6045483 C260.779264,58.2354158 258.774824,62.3234205 257.377336,66.8610682 C255.979848,71.3987159 255.282978,75.9363636 255.282978,80.4740113 C255.282978,86.6903264 256.628013,91.5951826 259.314337,95.1885799 C262.000661,98.7857242 266.279297,100.584296 272.142752,100.584296 L272.142752,100.584296 Z" id="Shape" fill="#141414"></path>
            <path d="M326.805888,107.808561 L317.068432,107.808561 L329.634584,55.4438819 C332.845434,54.4659083 336.318548,53.68278 340.053924,53.087003 C343.789301,52.494973 347.120043,52.198958 350.053644,52.198958 C353.197055,52.198958 355.902113,52.6336129 358.168816,53.5066698 C360.439265,54.3797267 362.271361,55.5675338 363.668849,57.0663439 C365.06259,58.5689011 366.09291,60.3824614 366.756061,62.5145188 C367.419212,64.6428292 367.752661,66.9659849 367.752661,69.4764919 C367.752661,71.0839658 367.610289,72.7776212 367.33304,74.5574583 C367.052043,76.3372953 366.703608,78.1358675 366.283987,79.9494278 L359.58129,107.808561 L349.843834,107.808561 L356.022004,82.047762 C356.512811,80.0918147 356.981138,78.1021443 357.438225,76.0750036 C357.891566,74.0516099 358.116363,72.1331329 358.116363,70.3158256 C358.116363,67.5242917 357.348307,65.201136 355.812194,63.3501054 C354.276081,61.5028219 351.413666,60.5773067 347.224949,60.5773067 C345.479025,60.5773067 343.770568,60.6822234 342.09583,60.8920568 C340.421093,61.0981432 339.023605,61.3791701 337.907113,61.7276435 L326.805888,107.808561 L326.805888,107.808561 Z" id="Shape" fill="#141414"></path>
            <path d="M407.335665,109.382312 C402.798512,109.382312 398.800872,108.719088 395.346492,107.392641 C391.888365,106.062447 389.010963,104.177694 386.706794,101.734633 C384.402625,99.2915727 382.675435,96.3426637 381.521477,92.8841593 C380.371265,89.4294019 379.794286,85.5362426 379.794286,81.2084283 C379.794286,74.9246668 380.78714,68.9181851 382.78034,63.1927304 C384.769793,57.4672756 387.594742,52.4087914 391.258933,48.0097836 C394.926871,43.6107759 399.340385,40.0998131 404.506969,37.4843894 C409.673554,34.8652187 415.432103,33.5537598 421.786365,33.5537598 C427.230199,33.5537598 431.576274,34.1158136 434.824591,35.2324272 C438.069161,36.3490407 440.392063,37.3944608 441.789551,38.3724344 L437.600834,46.7507831 C435.993535,45.705363 433.813004,44.7086543 431.055494,43.7681509 C428.297985,42.8239005 425.030935,42.3517753 421.261839,42.3517753 C416.447436,42.3517753 412.116348,43.487124 408.276066,45.7578214 C404.43953,48.0247717 401.191214,50.9586926 398.538609,54.5558369 C395.886005,58.1492342 393.862832,62.1997687 392.465344,66.7036931 C391.067856,71.2076176 390.370985,75.6590837 390.370985,80.0543445 C390.370985,93.6710346 396.26816,100.47938 408.070002,100.47938 C410.580235,100.47938 412.831951,100.30327 414.821405,99.9547962 C416.810858,99.6063228 418.575515,99.2053911 420.111627,98.752001 C421.64774,98.2948639 423.007762,97.7890155 424.19544,97.2307087 C425.383117,96.6724019 426.428423,96.1852886 427.335104,95.7656218 L428.593967,104.563637 C427.754725,105.050751 426.656967,105.575334 425.293198,106.133641 C423.933176,106.691948 422.344611,107.216531 420.531249,107.703645 C418.714139,108.194505 416.690967,108.595437 414.454236,108.910187 C412.221253,109.224937 409.849645,109.382312 407.335665,109.382312 L407.335665,109.382312 Z" id="Shape" fill="#141414"></path>
            <path d="M437.600834,107.808561 L456.761031,28.2142487 L466.921855,26.5393283 L460.219158,54.0837117 C461.82271,53.525405 463.51618,53.0720149 465.295823,52.7197945 C467.079213,52.3713211 468.873842,52.198958 470.690951,52.198958 C473.830616,52.198958 476.535673,52.6336129 478.806123,53.5066698 C481.076572,54.3797267 482.908668,55.5675338 484.302409,57.0663439 C485.699897,58.5689011 486.730217,60.3824614 487.393368,62.5145188 C488.056519,64.6428292 488.386221,66.9659849 488.386221,69.4764919 C488.386221,72.5490527 487.899161,76.0412803 486.921294,79.9494278 L480.218597,107.808561 L470.481141,107.808561 L476.659311,82.047762 C477.146372,80.0918147 477.618445,78.1021443 478.071786,76.0750036 C478.525126,74.0516099 478.75367,72.1331329 478.75367,70.3158256 C478.75367,67.5242917 477.985614,65.201136 476.449501,63.3501054 C474.913388,61.5028219 472.050973,60.5773067 467.862256,60.5773067 C466.187518,60.5773067 464.460328,60.7346817 462.680685,61.0456848 C460.901042,61.360435 459.417382,61.7988369 458.229704,62.3571437 L447.33829,107.808561 L437.600834,107.808561 L437.600834,107.808561 Z" id="Shape" fill="#141414"></path>
            <path d="M532.686216,108.438062 C532.334034,107.669921 531.985598,106.8156 531.637163,105.871349 C531.288728,104.930846 531.007731,103.934137 530.797921,102.888717 C529.261808,104.28261 527.204916,105.680251 524.61975,107.077891 C522.038331,108.471785 518.861201,109.172479 515.092104,109.172479 C512.019879,109.172479 509.386007,108.681618 507.186743,107.703645 C504.987479,106.725671 503.189103,105.365501 501.791615,103.619387 C500.394127,101.873273 499.367554,99.8161562 498.704403,97.4405421 C498.041252,95.0686751 497.707803,92.4495044 497.707803,89.586777 C497.707803,84.9067423 498.494593,80.3353714 500.064425,75.8651701 C501.634258,71.3987159 503.990879,67.419375 507.134291,63.9271473 C510.273955,60.4349197 514.219143,57.6096626 518.966106,55.4438819 C523.713069,53.2781013 529.261808,52.198958 535.61607,52.198958 C537.500618,52.198958 539.699882,52.4087914 542.213862,52.8247112 C544.727841,53.2443781 546.889639,53.9413248 548.706748,54.9192984 L540.644029,87.8069399 C540.295594,89.4106668 539.995865,90.9469472 539.752335,92.4157811 C539.508804,93.880868 539.385166,95.4171484 539.385166,97.0208753 C539.385166,98.6283492 539.527538,100.250811 539.804787,101.892008 C540.085783,103.533205 540.572844,105.294307 541.269714,107.182808 L532.686216,108.438062 L532.686216,108.438062 Z M517.081558,100.899047 C520.015158,100.899047 522.525392,100.269546 524.61975,99.0105458 C526.714109,97.7552923 528.531218,96.2902054 530.067331,94.615285 C530.13477,93.427478 530.258408,92.1872126 530.434499,90.8944888 C530.606844,89.6055121 530.835387,88.2940532 531.112637,86.9676063 L537.395713,60.9932265 C537.047277,60.8545866 536.470298,60.7496698 535.668522,60.6822234 C534.866747,60.6110299 534.151143,60.5773067 533.521711,60.5773067 C529.542804,60.5773067 525.946052,61.3454469 522.735202,62.8817273 C519.524352,64.4180077 516.785575,66.4601365 514.515125,69.0081137 C512.248422,71.556091 510.502499,74.5237351 509.281102,77.907299 C508.059705,81.2946099 507.44526,84.8392959 507.44526,88.5376099 C507.44526,90.0064438 507.587631,91.4902659 507.864881,92.989076 C508.145877,94.4916332 508.65167,95.8180802 509.386007,96.9684169 C510.116597,98.1225008 511.094464,99.0630041 512.315861,99.7974211 C513.537258,100.531838 515.125824,100.899047 517.081558,100.899047 L517.081558,100.899047 Z" id="Shape" fill="#141414"></path>
            <path d="M562.112142,107.808561 L552.370939,107.808561 L565.461618,53.3492948 L575.199074,53.3492948 L562.112142,107.808561 L562.112142,107.808561 Z M573.419431,43.5058591 C571.815879,43.5058591 570.470844,43.0149988 569.388072,42.0370252 C568.305299,41.0627986 567.765787,39.6988814 567.765787,37.9527676 C567.765787,35.7195405 568.462657,33.9584385 569.860145,32.6657148 C571.257633,31.372991 572.827466,30.7285027 574.573389,30.7285027 C576.176941,30.7285027 577.540709,31.2343511 578.657201,32.2460479 C579.773693,33.2577448 580.331939,34.6741204 580.331939,36.4876807 C580.331939,38.5822678 579.597602,40.2759233 578.132675,41.568647 C576.667748,42.8576238 575.094169,43.5058591 573.419431,43.5058591 L573.419431,43.5058591 Z" id="Shape" fill="#141414"></path>
            <path d="M588.184847,107.808561 L578.447391,107.808561 L591.013543,55.4438819 C594.224393,54.4659083 597.697507,53.68278 601.432883,53.087003 C605.16826,52.494973 608.502749,52.198958 611.432603,52.198958 C614.576014,52.198958 617.281071,52.6336129 619.547774,53.5066698 C621.818224,54.3797267 623.65032,55.5675338 625.047808,57.0663439 C626.441549,58.5689011 627.471868,60.3824614 628.13502,62.5145188 C628.798171,64.6428292 629.13162,66.9659849 629.13162,69.4764919 C629.13162,71.0839658 628.992995,72.7776212 628.711999,74.5574583 C628.431002,76.3372953 628.082567,78.1358675 627.666693,79.9494278 L620.963995,107.808561 L611.222792,107.808561 L617.400963,82.047762 C617.89177,80.0918147 618.363844,78.1021443 618.817184,76.0750036 C619.270525,74.0516099 619.495322,72.1331329 619.495322,70.3158256 C619.495322,67.5242917 618.727265,65.201136 617.191153,63.3501054 C615.658786,61.5028219 612.796371,60.5773067 608.607654,60.5773067 C606.861731,60.5773067 605.149527,60.6822234 603.474789,60.8920568 C601.800052,61.0981432 600.402564,61.3791701 599.286072,61.7276435 L588.184847,107.808561 L588.184847,107.808561 Z" id="Shape" fill="#141414"></path>
            <path d="M692.906527,109.382312 C688.365628,109.382312 684.371734,108.719088 680.913607,107.392641 C677.459227,106.062447 674.578079,104.177694 672.273909,101.734633 C669.96974,99.2915727 668.24255,96.3426637 667.092339,92.8841593 C665.938381,89.4294019 665.365149,85.5362426 665.365149,81.2084283 C665.365149,74.9246668 666.358002,68.9181851 668.347455,63.1927304 C670.336909,57.4672756 673.165604,52.4087914 676.829795,48.0097836 C680.497733,43.6107759 684.911247,40.0998131 690.077831,37.4843894 C695.244416,34.8652187 701.002965,33.5537598 707.357227,33.5537598 C712.801061,33.5537598 717.147136,34.1158136 720.395453,35.2324272 C723.640023,36.3490407 725.962925,37.3944608 727.356666,38.3724344 L723.167949,46.7507831 C721.564397,45.705363 719.38012,44.7086543 716.62261,43.7681509 C713.8651,42.8239005 710.601797,42.3517753 706.832701,42.3517753 C702.014552,42.3517753 697.68721,43.487124 693.846928,45.7578214 C690.006646,48.0247717 686.762076,50.9586926 684.109471,54.5558369 C681.456867,58.1492342 679.429947,62.1997687 678.036206,66.7036931 C676.638718,71.2076176 675.941847,75.6590837 675.941847,80.0543445 C675.941847,93.6710346 681.839022,100.47938 693.637117,100.47938 C696.151097,100.47938 698.402813,100.30327 700.392267,99.9547962 C702.38172,99.6063228 704.146377,99.2053911 705.682489,98.752001 C707.218602,98.2948639 708.578624,97.7890155 709.766302,97.2307087 C710.950232,96.6724019 711.999285,96.1852886 712.905966,95.7656218 L714.164829,104.563637 C713.325587,105.050751 712.224082,105.575334 710.86406,106.133641 C709.504038,106.691948 707.915473,107.216531 706.098364,107.703645 C704.285001,108.194505 702.261829,108.595437 700.025098,108.910187 C697.792115,109.224937 695.41676,109.382312 692.906527,109.382312 L692.906527,109.382312 Z" id="Shape" fill="#141414"></path>
            <path d="M741.391492,109.172479 C735.666662,109.172479 731.181962,107.478823 727.933645,104.091512 C724.689075,100.704201 723.063044,96.0466487 723.063044,90.1113605 C723.063044,86.0608261 723.640023,81.8004583 724.793981,77.3340041 C725.944192,72.8638028 727.776287,68.745822 730.290267,64.9763144 C732.804247,61.2030599 736.048817,58.0967759 740.027724,55.6537154 C744.00663,53.2106548 748.824779,51.9891246 754.478424,51.9891246 C760.203254,51.9891246 764.691701,53.68278 767.936271,57.0663439 C771.184587,60.4536548 772.806872,65.1149544 772.806872,71.0502425 C772.806872,75.0970299 772.229893,79.3573978 771.079682,83.827599 C769.925724,88.2940532 768.093628,92.4157811 765.579649,96.1852886 C763.065669,99.9547962 759.821099,103.06108 755.842192,105.504141 C751.863285,107.950948 747.045136,109.172479 741.391492,109.172479 L741.391492,109.172479 Z M743.06623,100.899047 C746.205894,100.899047 749.015857,99.9885194 751.496117,98.1749591 C753.972631,96.3576518 756.066989,94.0382431 757.779193,91.209239 C759.48765,88.3839819 760.798966,85.2589627 761.705647,81.8379286 C762.612328,78.4168944 763.065669,75.0970299 763.065669,71.8858292 C763.065669,68.3261551 762.297613,65.497151 760.7615,63.4025638 C759.229134,61.3079766 756.572782,60.2625565 752.803686,60.2625565 C749.664021,60.2625565 746.854059,61.1693367 744.373799,62.986644 C741.897285,64.8002043 739.802927,67.12336 738.090723,69.9486171 C736.382266,72.7776212 735.07095,75.9026404 734.164269,79.3236745 C733.257587,82.7447087 732.804247,86.0608261 732.804247,89.2720269 C732.804247,92.8317009 733.572303,95.6607051 735.108416,97.7552923 C736.644529,99.8498794 739.297133,100.899047 743.06623,100.899047 L743.06623,100.899047 Z" id="Shape" fill="#141414"></path>
            <path d="M788.407783,107.808561 L778.670327,107.808561 L791.236479,55.4438819 C794.447329,54.4659083 797.920443,53.68278 801.65582,53.087003 C805.391196,52.494973 808.725685,52.198958 811.655539,52.198958 C814.798951,52.198958 817.504008,52.6336129 819.774457,53.5066698 C822.04116,54.3797267 823.873256,55.5675338 825.270744,57.0663439 C826.668232,58.5689011 827.694805,60.3824614 828.357956,62.5145188 C829.024854,64.6428292 829.354556,66.9659849 829.354556,69.4764919 C829.354556,71.0839658 829.215931,72.7776212 828.934935,74.5574583 C828.657685,76.3372953 828.30925,78.1358675 827.889629,79.9494278 L821.186932,107.808561 L811.445729,107.808561 L817.627646,82.047762 C818.114706,80.0918147 818.58678,78.1021443 819.040121,76.0750036 C819.493461,74.0516099 819.722005,72.1331329 819.722005,70.3158256 C819.722005,67.5242917 818.953948,65.201136 817.417836,63.3501054 C815.881723,61.5028219 813.019308,60.5773067 808.83059,60.5773067 C807.084667,60.5773067 805.372463,60.6822234 803.697726,60.8920568 C802.022988,61.0981432 800.6255,61.3791701 799.509008,61.7276435 L788.407783,107.808561 L788.407783,107.808561 Z" id="Shape" fill="#141414"></path>
            <path d="M859.200104,53.3492948 L877.4199,53.3492948 L875.535352,61.51781 L857.315556,61.51781 L848.938121,96.0803719 C848.098879,99.640046 847.364542,102.817524 846.738857,105.609057 C846.109425,108.404338 845.360102,111.019762 844.48714,113.46657 C843.614179,115.90963 842.460221,118.266509 841.029013,120.533459 C839.597806,122.804157 837.660805,125.161036 835.218011,127.604096 L826.630766,126.348843 C828.725124,123.624755 830.366143,121.320335 831.55382,119.435581 C832.741497,117.550827 833.734351,115.628603 834.539873,113.676403 C835.341649,111.720456 836.03852,109.468494 836.634232,106.920516 C837.226197,104.372539 838.012987,101.07141 838.987107,97.0208753 L850.612858,48.4257034 C851.452101,44.9372228 852.51614,41.8309388 853.804976,39.1068514 C855.097559,36.3827639 856.738577,34.0970785 858.72803,32.2460479 C860.717483,30.3950174 863.074105,28.9823889 865.797895,28.0044152 C868.517939,27.0264416 871.766256,26.5393283 875.535352,26.5393283 C877.978146,26.5393283 880.301048,26.782885 882.500312,27.2699983 C884.699576,27.7608586 886.355581,28.2854421 887.472072,28.8437489 L883.598071,36.5925974 C883.039825,36.3115705 882.080691,35.9630971 880.720669,35.5471773 C879.356901,35.1275104 877.352461,34.917677 874.699856,34.917677 C872.395687,34.917677 870.439953,35.2474153 868.832655,35.9106387 C867.229103,36.5738622 865.865335,37.4993775 864.748843,38.6871845 C863.632351,39.8749916 862.744403,41.3063553 862.081252,42.9812756 C861.414354,44.6561959 860.841122,46.5409497 860.350315,48.6355369 L859.200104,53.3492948 L859.200104,53.3492948 Z" id="Shape" fill="#141414"></path>
            <path d="M888.311314,79.2187578 C892.361407,79.0801179 896.059318,78.8178261 899.412539,78.4318825 C902.762015,78.0496859 905.661896,77.3864624 908.10469,76.442212 C910.547484,75.5017087 912.450765,74.2277201 913.810787,72.6202462 C915.170809,71.0127723 915.852693,68.9181851 915.852693,66.3364846 C915.852693,65.7069844 915.729055,65.0437609 915.485524,64.3468142 C915.241994,63.6498675 914.822373,63.0016321 914.230408,62.4096021 C913.634696,61.813825 912.814187,61.3267117 911.768881,60.9407681 C910.719828,60.5585715 909.430992,60.3674733 907.894879,60.3674733 C905.452085,60.3674733 903.162903,60.8920568 901.034824,61.9374769 C898.906746,62.986644 897.003465,64.3655493 895.328727,66.0741929 C893.65399,67.7865835 892.222782,69.7762539 891.035105,72.0432043 C889.847427,74.3139016 888.940746,76.7045038 888.311314,79.2187578 L888.311314,79.2187578 Z M898.258581,109.172479 C894.699296,109.172479 891.62707,108.66663 889.045651,107.651186 C886.460486,106.639489 884.298688,105.245596 882.552765,103.462012 C880.806841,101.682175 879.514259,99.6063228 878.678763,97.2307087 C877.839521,94.8588417 877.4199,92.3445877 877.4199,89.6916937 C877.4199,84.8055726 878.154237,80.0918147 879.619164,75.554167 C881.087838,71.0127723 883.182196,66.9997081 885.90224,63.5074805 C888.62603,60.0189999 891.941786,57.2424541 895.853254,55.1815902 C899.760975,53.1244732 904.193222,52.0940413 909.149996,52.0940413 C912.012411,52.0940413 914.473938,52.4612498 916.534577,53.1919197 C918.59147,53.9263367 920.269954,54.9192984 921.55879,56.1782989 C922.851373,57.4335524 923.810507,58.8836512 924.439938,60.5248483 C925.06937,62.1660454 925.384085,63.8559539 925.384085,65.6020677 C925.384085,68.8844619 924.788373,71.6610077 923.600696,73.927958 C922.416765,76.1986554 920.843186,78.1021443 918.891199,79.6384247 C916.935465,81.1747051 914.650029,82.3587651 912.031144,83.1980988 C909.412259,84.0374324 906.688469,84.7006559 903.86352,85.1877692 C901.034824,85.6748825 898.172409,86.0083678 895.276275,86.184478 C892.376393,86.3568411 889.637617,86.5142162 887.056198,86.6528561 C886.985012,87.2111629 886.951293,87.6683 886.951293,88.0167734 L886.951293,88.85236 C886.951293,90.4598339 887.14237,91.9773792 887.524525,93.4087429 C887.910426,94.8401065 888.62603,96.0991071 889.671336,97.1782504 C890.720389,98.2611407 892.17033,99.1154625 894.017412,99.7449627 C895.86824,100.374463 898.296048,100.689213 901.297088,100.689213 C902.62339,100.689213 904.002145,100.565561 905.433352,100.322005 C906.86456,100.078448 908.224582,99.7636979 909.517164,99.3777542 C910.809747,98.9955577 911.959958,98.6096141 912.971545,98.2274175 C913.986878,97.8414739 914.702482,97.4780124 915.118356,97.125792 L915.957598,105.399224 C914.56011,106.167364 912.308394,106.987963 909.202448,107.86102 C906.096503,108.734077 902.447299,109.172479 898.258581,109.172479 L898.258581,109.172479 Z" id="Shape" fill="#141414"></path>
            <path d="M960.358751,52.198958 C961.197993,52.198958 962.138394,52.2326812 963.187447,52.3038747 C964.232753,52.3713211 965.263072,52.494973 966.274659,52.6673361 C967.286245,52.8434463 968.21166,53.0195565 969.050902,53.1919197 C969.886397,53.3680299 970.515829,53.5591282 970.93545,53.7689616 L968.106754,62.252227 C966.713013,61.6939202 965.105714,61.2742534 963.292352,60.9932265 C961.475243,60.7159466 959.72932,60.5773067 958.054582,60.5773067 C956.589655,60.5773067 955.139714,60.6822234 953.708507,60.8920568 C952.277299,61.0981432 951.037169,61.3791701 949.991863,61.7276435 L938.890638,107.808561 L929.153182,107.808561 L941.719334,55.4438819 C944.510563,54.4659083 947.511603,53.68278 950.7262,53.087003 C953.93705,52.494973 957.147901,52.198958 960.358751,52.198958 L960.358751,52.198958 Z" id="Shape" fill="#141414"></path>
            <path d="M980.987622,79.2187578 C985.037715,79.0801179 988.739372,78.8178261 992.088847,78.4318825 C995.438322,78.0496859 998.338203,77.3864624 1000.781,76.442212 C1003.22379,75.5017087 1005.12707,74.2277201 1006.48709,72.6202462 C1007.84712,71.0127723 1008.529,68.9181851 1008.529,66.3364846 C1008.529,65.7069844 1008.40911,65.0437609 1008.16183,64.3468142 C1007.9183,63.6498675 1007.49868,63.0016321 1006.90672,62.4096021 C1006.31475,61.813825 1005.49424,61.3267117 1004.44519,60.9407681 C1003.39988,60.5585715 1002.1073,60.3674733 1000.57119,60.3674733 C998.128393,60.3674733 995.842957,60.8920568 993.711132,61.9374769 C991.583054,62.986644 989.679773,64.3655493 988.005035,66.0741929 C986.330297,67.7865835 984.89909,69.7762539 983.711412,72.0432043 C982.523735,74.3139016 981.617054,76.7045038 980.987622,79.2187578 L980.987622,79.2187578 Z M990.934889,109.172479 C987.375603,109.172479 984.303378,108.66663 981.721959,107.651186 C979.136793,106.639489 976.974996,105.245596 975.229072,103.462012 C973.483149,101.682175 972.190566,99.6063228 971.355071,97.2307087 C970.515829,94.8588417 970.096208,92.3445877 970.096208,89.6916937 C970.096208,84.8055726 970.830545,80.0918147 972.295472,75.554167 C973.764145,71.0127723 975.858504,66.9997081 978.578548,63.5074805 C981.302338,60.0189999 984.618094,57.2424541 988.529561,55.1815902 C992.437282,53.1244732 996.86953,52.0940413 1001.8263,52.0940413 C1004.68872,52.0940413 1007.15025,52.4612498 1009.21088,53.1919197 C1011.27152,53.9263367 1012.94626,54.9192984 1014.2351,56.1782989 C1015.52768,57.4335524 1016.48681,58.8836512 1017.11625,60.5248483 C1017.74568,62.1660454 1018.06039,63.8559539 1018.06039,65.6020677 C1018.06039,68.8844619 1017.46468,71.6610077 1016.277,73.927958 C1015.09307,76.1986554 1013.51949,78.1021443 1011.56751,79.6384247 C1009.61177,81.1747051 1007.32634,82.3587651 1004.70745,83.1980988 C1002.08857,84.0374324 999.364776,84.7006559 996.539827,85.1877692 C993.711132,85.6748825 990.848717,86.0083678 987.952582,86.184478 C985.056448,86.3568411 982.313924,86.5142162 979.732506,86.6528561 C979.66132,87.2111629 979.6276,87.6683 979.6276,88.0167734 L979.6276,88.85236 C979.6276,90.4598339 979.818678,91.9773792 980.204579,93.4087429 C980.586734,94.8401065 981.302338,96.0991071 982.351391,97.1782504 C983.396697,98.2611407 984.846637,99.1154625 986.693719,99.7449627 C988.544548,100.374463 990.972355,100.689213 993.973395,100.689213 C995.299697,100.689213 996.678452,100.565561 998.10966,100.322005 C999.540867,100.078448 1000.90089,99.7636979 1002.19347,99.3777542 C1003.48605,98.9955577 1004.63627,98.6096141 1005.6516,98.2274175 C1006.66319,97.8414739 1007.37879,97.4780124 1007.79841,97.125792 L1008.63391,105.399224 C1007.23642,106.167364 1004.98845,106.987963 1001.87876,107.86102 C998.772811,108.734077 995.127353,109.172479 990.934889,109.172479 L990.934889,109.172479 Z" id="Shape" fill="#141414"></path>
            <path d="M1031.56695,107.808561 L1021.82949,107.808561 L1034.39564,55.4438819 C1037.60649,54.4659083 1041.07961,53.68278 1044.81498,53.087003 C1048.55036,52.494973 1051.88485,52.198958 1054.8147,52.198958 C1057.95811,52.198958 1060.66317,52.6336129 1062.92987,53.5066698 C1065.20032,54.3797267 1067.03242,55.5675338 1068.42991,57.0663439 C1069.82365,58.5689011 1070.85397,60.3824614 1071.51712,62.5145188 C1072.18027,64.6428292 1072.51372,66.9659849 1072.51372,69.4764919 C1072.51372,71.0839658 1072.37509,72.7776212 1072.0941,74.5574583 C1071.81685,76.3372953 1071.46467,78.1358675 1071.04879,79.9494278 L1064.34609,107.808561 L1054.60489,107.808561 L1060.78306,82.047762 C1061.27387,80.0918147 1061.74594,78.1021443 1062.19928,76.0750036 C1062.65262,74.0516099 1062.87742,72.1331329 1062.87742,70.3158256 C1062.87742,67.5242917 1062.10936,65.201136 1060.577,63.3501054 C1059.04089,61.5028219 1056.17847,60.5773067 1051.98975,60.5773067 C1050.24383,60.5773067 1048.53163,60.6822234 1046.85689,60.8920568 C1045.18215,61.0981432 1043.78466,61.3791701 1042.66817,61.7276435 L1031.56695,107.808561 L1031.56695,107.808561 Z" id="Shape" fill="#141414"></path>
            <path d="M1082.04136,88.3315235 C1082.04136,83.5802953 1082.75697,79.0089244 1084.18818,74.6099166 C1085.61938,70.2109089 1087.73247,66.3364846 1090.5237,62.986644 C1093.31868,59.6330563 1096.73934,56.9614272 1100.78569,54.9717567 C1104.83578,52.9820863 1109.47784,51.9891246 1114.71561,51.9891246 C1117.01978,51.9891246 1119.21904,52.1464996 1121.3134,52.4612498 C1123.40776,52.7722529 1125.39721,53.383018 1127.28176,54.2935452 L1123.61757,62.4620604 C1122.50108,61.8325602 1121.18976,61.3454469 1119.69111,60.9932265 C1118.18872,60.6447531 1116.25172,60.47239 1113.87637,60.47239 C1110.4557,60.47239 1107.38348,61.221795 1104.66344,62.7243522 C1101.93965,64.2231623 1099.61674,66.2128328 1097.69848,68.6933636 C1095.78021,71.1701474 1094.31153,74.0328747 1093.29995,77.2815457 C1092.28836,80.5264697 1091.78257,83.8950455 1091.78257,87.3872731 C1091.78257,89.2008334 1091.97364,90.913224 1092.3558,92.5206978 C1092.7417,94.1244247 1093.42359,95.5370533 1094.39771,96.7623305 C1095.37557,97.9838608 1096.68689,98.9430993 1098.32791,99.640046 C1099.96892,100.34074 1102.04455,100.689213 1104.55853,100.689213 C1105.81365,100.689213 1107.13995,100.565561 1108.53744,100.322005 C1109.93118,100.078448 1111.22376,99.778686 1112.41144,99.4302126 C1113.59912,99.0817392 1114.66315,98.7145308 1115.60356,98.3323342 C1116.5477,97.9463906 1117.22959,97.5791821 1117.64546,97.2307087 L1118.4847,105.504141 C1117.1584,106.343474 1115.09776,107.164073 1112.30653,107.965936 C1109.5153,108.771547 1106.33817,109.172479 1102.77889,109.172479 C1099.42567,109.172479 1096.45834,108.66663 1093.87693,107.651186 C1091.29176,106.639489 1089.12996,105.208126 1087.38404,103.357095 C1085.63812,101.509812 1084.31181,99.3103078 1083.40513,96.7623305 C1082.4947,94.2106063 1082.04136,91.4003373 1082.04136,88.3315235 L1082.04136,88.3315235 Z" id="Shape" fill="#141414"></path>
            <path d="M1139.11357,79.2187578 C1143.16367,79.0801179 1146.86532,78.8178261 1150.2148,78.4318825 C1153.56427,78.0496859 1156.46416,77.3864624 1158.90695,76.442212 C1161.34974,75.5017087 1163.25303,74.2277201 1164.61305,72.6202462 C1165.97682,71.0127723 1166.65495,68.9181851 1166.65495,66.3364846 C1166.65495,65.7069844 1166.53506,65.0437609 1166.28778,64.3468142 C1166.04425,63.6498675 1165.62463,63.0016321 1165.03267,62.4096021 C1164.4407,61.813825 1163.62019,61.3267117 1162.57114,60.9407681 C1161.52584,60.5585715 1160.23325,60.3674733 1158.69714,60.3674733 C1156.25435,60.3674733 1153.96891,60.8920568 1151.83708,61.9374769 C1149.70901,62.986644 1147.80573,64.3655493 1146.13099,66.0741929 C1144.45625,67.7865835 1143.02504,69.7762539 1141.83736,72.0432043 C1140.64969,74.3139016 1139.74301,76.7045038 1139.11357,79.2187578 L1139.11357,79.2187578 Z M1149.06459,109.172479 C1145.50156,109.172479 1142.42933,108.66663 1139.84791,107.651186 C1137.26649,106.639489 1135.10095,105.245596 1133.35502,103.462012 C1131.6091,101.682175 1130.31652,99.6063228 1129.48102,97.2307087 C1128.64178,94.8588417 1128.22216,92.3445877 1128.22216,89.6916937 C1128.22216,84.8055726 1128.9565,80.0918147 1130.42142,75.554167 C1131.8901,71.0127723 1133.98446,66.9997081 1136.7045,63.5074805 C1139.42829,60.0189999 1142.74405,57.2424541 1146.65551,55.1815902 C1150.56323,53.1244732 1154.99548,52.0940413 1159.95226,52.0940413 C1162.81467,52.0940413 1165.2762,52.4612498 1167.33684,53.1919197 C1169.39748,53.9263367 1171.07221,54.9192984 1172.3648,56.1782989 C1173.65363,57.4335524 1174.61651,58.8836512 1175.2422,60.5248483 C1175.87163,62.1660454 1176.18635,63.8559539 1176.18635,65.6020677 C1176.18635,68.8844619 1175.59063,71.6610077 1174.4067,73.927958 C1173.21903,76.1986554 1171.64919,78.1021443 1169.69346,79.6384247 C1167.73773,81.1747051 1165.45229,82.3587651 1162.8334,83.1980988 C1160.21452,84.0374324 1157.49448,84.7006559 1154.66578,85.1877692 C1151.83708,85.6748825 1148.97467,86.0083678 1146.07853,86.184478 C1143.1824,86.3568411 1140.43988,86.5142162 1137.85846,86.6528561 C1137.78727,87.2111629 1137.75355,87.6683 1137.75355,88.0167734 L1137.75355,88.85236 C1137.75355,90.4598339 1137.94463,91.9773792 1138.33053,93.4087429 C1138.71269,94.8401065 1139.42829,96.0991071 1140.47734,97.1782504 C1141.52265,98.2611407 1142.97259,99.1154625 1144.82342,99.7449627 C1146.6705,100.374463 1149.09831,100.689213 1152.09935,100.689213 C1153.42565,100.689213 1154.8044,100.565561 1156.23561,100.322005 C1157.66682,100.078448 1159.03059,99.7636979 1160.31942,99.3777542 C1161.61201,98.9955577 1162.76222,98.6096141 1163.77755,98.2274175 C1164.78914,97.8414739 1165.50474,97.4780124 1165.92436,97.125792 L1166.75986,105.399224 C1165.36612,106.167364 1163.1144,106.987963 1160.00471,107.86102 C1156.89876,108.734077 1153.25331,109.172479 1149.06459,109.172479 L1149.06459,109.172479 Z" id="Shape" fill="#141414"></path>
            <path d="M1193.57065,101.003963 C1195.03557,101.003963 1196.51923,100.861576 1198.01788,100.584296 C1199.52027,100.30327 1200.84658,99.8498794 1202.00053,99.2203792 C1203.15075,98.5946259 1204.09489,97.7365571 1204.82548,96.6574138 C1205.55982,95.5745235 1205.92699,94.2293414 1205.92699,92.6218675 C1205.92699,91.5764475 1205.7509,90.6509322 1205.40246,89.8490688 C1205.05403,89.0472053 1204.49578,88.2940532 1203.72772,87.5971065 C1202.95967,86.9001598 1202.00053,86.2182012 1200.84658,85.5549777 C1199.69636,84.8917542 1198.31761,84.1423491 1196.71031,83.3030155 C1195.10301,82.5348753 1193.63809,81.7667351 1192.31178,80.9985949 C1190.98548,80.2304547 1189.81654,79.3236745 1188.80495,78.2745074 C1187.79336,77.2290874 1187.00657,75.988822 1186.44833,74.5574583 C1185.89008,73.1260946 1185.60909,71.3987159 1185.60909,69.3753222 C1185.60909,64.1369808 1187.49363,59.9290713 1191.26648,56.7515938 C1195.03557,53.5778633 1200.51687,51.9891246 1207.70663,51.9891246 C1211.05611,51.9891246 1214.00844,52.3188628 1216.55614,52.9820863 C1219.10384,53.6453098 1220.86475,54.2560749 1221.84262,54.8143817 L1218.17842,62.7768106 C1217.20056,62.2185038 1215.63073,61.6227267 1213.46518,60.9932265 C1211.29964,60.3674733 1208.89431,60.0527231 1206.2417,60.0527231 C1204.91165,60.0527231 1203.58535,60.1913631 1202.25905,60.47239 C1200.93275,60.7496698 1199.73008,61.221795 1198.64731,61.8850185 C1197.56454,62.548242 1196.69158,63.4212989 1196.02843,64.5041892 C1195.36528,65.5870796 1195.03557,66.8947914 1195.03557,68.4310718 C1195.03557,70.3158256 1195.76616,71.8708411 1197.23484,73.0923714 C1198.69976,74.3139016 1200.89903,75.5878903 1203.83263,76.9143372 C1205.64599,77.7536709 1207.26828,78.6079927 1208.69948,79.4810496 C1210.13069,80.3541065 1211.35209,81.3320801 1212.36742,82.4112234 C1213.37901,83.4941138 1214.14706,84.7681024 1214.67159,86.2369363 C1215.19237,87.7020232 1215.45463,89.4481371 1215.45463,91.4715307 C1215.45463,94.4054516 1214.89639,96.9871521 1213.7799,99.2203792 C1212.6634,101.457353 1211.10856,103.304637 1209.11911,104.773471 C1207.12965,106.238558 1204.77303,107.340183 1202.05299,108.070853 C1199.3292,108.80527 1196.36188,109.172479 1193.15103,109.172479 C1190.77567,109.172479 1188.62886,109.015103 1186.71059,108.700353 C1184.78858,108.385603 1183.11384,108.018395 1181.68263,107.598728 C1180.25142,107.182808 1179.06375,106.744406 1178.12335,106.291016 C1177.1792,105.837626 1176.4636,105.470417 1175.97654,105.193138 L1179.74563,97.2307087 C1180.23644,97.5117356 1180.91458,97.860209 1181.78754,98.2798758 C1182.6605,98.6995427 1183.70955,99.1154625 1184.93095,99.5351293 C1186.15235,99.9547962 1187.49363,100.30327 1188.96231,100.584296 C1190.42724,100.861576 1191.96335,101.003963 1193.57065,101.003963 L1193.57065,101.003963 Z" id="Shape" fill="#141414"></path>
            <g id="Group" transform="translate(1031.944463, 159.974216) rotate(-0.000000) translate(-1031.944463, -159.974216) translate(849.269460, 145.766160)" fill="#0276DD">
                <path d="M0.561556491,27.2645825 L0.561556491,1.05545557 L18.1105351,1.05545557 L18.1105351,6.00933103 L6.46128252,6.00933103 L6.46128252,11.4936406 L16.8250444,11.4936406 L16.8250444,16.447516 L6.46128252,16.447516 L6.46128252,27.2645825 L0.561556491,27.2645825 L0.561556491,27.2645825 Z" id="Shape"></path>
                <path d="M32.52021,27.7950166 C30.6799285,27.7950166 29.0913325,27.5365653 27.7557753,27.0196627 C26.4188649,26.5027601 25.3160491,25.7842384 24.4459749,24.8627445 C23.5759006,23.9426037 22.9331552,22.8465537 22.5163856,21.5732413 C22.1009691,20.2999289 21.8925843,18.8940079 21.8925843,17.3554784 L21.8925843,1.05545557 L27.7923103,1.05545557 L27.7923103,16.8642857 C27.7923103,17.9238007 27.9127405,18.8249974 28.1522477,19.5678757 C28.3917549,20.3121072 28.7192168,20.9169644 29.1359864,21.3838005 C29.5514029,21.8506367 30.0561272,22.1848643 30.6488061,22.3864833 C31.241485,22.5881024 31.8896429,22.6882354 32.5959863,22.6882354 C34.0330296,22.6882354 35.1994434,22.2471091 36.0952275,21.3648565 C36.9896584,20.4826039 37.4375504,18.9819625 37.4375504,16.8642857 L37.4375504,1.05545557 L43.3372765,1.05545557 L43.3372765,17.3554784 C43.3372765,18.8940079 43.1234791,20.3053415 42.6945311,21.5921854 C42.2655831,22.8776761 41.6106594,23.9804919 40.7284068,24.9006326 C39.844801,25.8221265 38.7230412,26.5338825 37.3617741,27.0386067 C36.0005071,27.5419779 34.3862013,27.7950166 32.52021,27.7950166 L32.52021,27.7950166 Z" id="Shape"></path>
                <path d="M68.4503534,1.05545557 L68.4503534,6.08510732 L60.5466149,6.08510732 L60.5466149,27.2645825 L54.6455357,27.2645825 L54.6455357,6.08510732 L46.7417973,6.08510732 L46.7417973,1.05545557 L68.4503534,1.05545557 L68.4503534,1.05545557 Z" id="Shape"></path>
                <path d="M82.4824999,27.7950166 C80.6408652,27.7950166 79.0536224,27.5365653 77.716712,27.0196627 C76.3798016,26.5027601 75.2769859,25.7842384 74.4069116,24.8627445 C73.5368373,23.9426037 72.894092,22.8465537 72.4786755,21.5732413 C72.0619058,20.2999289 71.8548742,18.8940079 71.8548742,17.3554784 L71.8548742,1.05545557 L77.7546002,1.05545557 L77.7546002,16.8642857 C77.7546002,17.9238007 77.8736772,18.8249974 78.1131845,19.5678757 C78.3526917,20.3121072 78.6815067,20.9169644 79.0969232,21.3838005 C79.5136928,21.8506367 80.0170639,22.1848643 80.6097428,22.3864833 C81.2024217,22.5881024 81.8519328,22.6882354 82.5582762,22.6882354 C83.9953196,22.6882354 85.1617333,22.2471091 86.0561642,21.3648565 C86.9519483,20.4826039 87.3984872,18.9819625 87.3984872,16.8642857 L87.3984872,1.05545557 L93.2995664,1.05545557 L93.2995664,17.3554784 C93.2995664,18.8940079 93.0844158,20.3053415 92.6554678,21.5921854 C92.227873,22.8776761 91.5715962,23.9804919 90.6893436,24.9006326 C89.8070909,25.8221265 88.6853311,26.5338825 87.3227109,27.0386067 C85.9614438,27.5419779 84.3484912,27.7950166 82.4824999,27.7950166 L82.4824999,27.7950166 Z" id="Shape"></path>
                <path d="M106.649726,0.752350383 C110.583328,0.752350383 113.596789,1.45192799 115.688756,2.8510832 C117.782076,4.2502384 118.82806,6.42610066 118.82806,9.37596368 C118.82806,11.2162452 118.405878,12.7101208 117.561513,13.8575904 C116.717149,15.0050601 115.499315,15.9062567 113.912072,16.5611805 C114.441153,17.2174573 114.995944,17.9671014 115.575092,18.8114659 C116.155592,19.6571835 116.729327,20.5394361 117.296296,21.4595768 C117.863265,22.3797176 118.412643,23.3377465 118.941724,24.3336636 C119.470805,25.3295806 119.963351,26.3065536 120.416656,27.2645825 L113.798408,27.2645825 C113.319394,26.4080397 112.833613,25.5379654 112.342421,24.6557128 C111.849875,23.7734602 111.346504,22.9155643 110.829601,22.0833781 C110.312698,21.251192 109.801208,20.4636598 109.297837,19.7194283 C108.793113,18.9765499 108.288389,18.301329 107.785018,17.6964718 L104.87169,17.6964718 L104.87169,27.2645825 L98.9719635,27.2645825 L98.9719635,1.43298391 C100.257454,1.18129835 101.587599,1.00403594 102.962397,0.903902978 C104.335843,0.802416865 105.565855,0.752350383 106.649726,0.752350383 L106.649726,0.752350383 Z M106.99072,5.78200213 C106.561772,5.78200213 106.177478,5.79553362 105.836484,5.81989028 C105.496844,5.8456001 105.174795,5.87130991 104.87169,5.89566658 L104.87169,13.0064602 L106.536062,13.0064602 C108.755225,13.0064602 110.343821,12.7290648 111.30185,12.1742741 C112.259879,11.6194833 112.738893,10.6736328 112.738893,9.33807553 C112.738893,8.05123162 112.253113,7.1378566 111.282906,6.59524418 C110.312698,6.05398492 108.881068,5.78200213 106.99072,5.78200213 L106.99072,5.78200213 Z" id="Shape"></path>
                <path d="M124.198705,27.2645825 L124.198705,1.05545557 L141.899236,1.05545557 L141.899236,6.00933103 L130.098431,6.00933103 L130.098431,11.1526472 L140.575857,11.1526472 L140.575857,15.9942114 L130.098431,15.9942114 L130.098431,22.310707 L142.76931,22.310707 L142.76931,27.2645825 L124.198705,27.2645825 L124.198705,27.2645825 Z" id="Shape"></path>
                <path d="M161.150475,14.1417515 C161.150475,15.4272423 161.30744,16.5868903 161.622724,17.6206955 C161.938007,18.6545007 162.391312,19.543519 162.983991,20.2863974 C163.57667,21.0306289 164.301957,21.6043637 165.1585,22.0076018 C166.016396,22.41084 167.000135,22.6124591 168.108363,22.6124591 C169.193588,22.6124591 170.170561,22.41084 171.040635,22.0076018 C171.909356,21.6043637 172.641409,21.0306289 173.234088,20.2863974 C173.826767,19.543519 174.280072,18.6545007 174.595355,17.6206955 C174.910639,16.5868903 175.067604,15.4272423 175.067604,14.1417515 C175.067604,12.8549076 174.910639,11.6884939 174.595355,10.6425104 C174.280072,9.59652683 173.826767,8.70074274 173.234088,7.95786439 C172.641409,7.2136329 171.909356,6.63989807 171.040635,6.23665992 C170.170561,5.83342176 169.193588,5.63180269 168.108363,5.63180269 C167.000135,5.63180269 166.016396,5.83883436 165.1585,6.25560399 C164.301957,6.67102048 163.57667,7.25152105 162.983991,7.99575254 C162.391312,8.73863089 161.938007,9.63441498 161.622724,10.6803985 C161.30744,11.726382 161.150475,12.8806174 161.150475,14.1417515 L161.150475,14.1417515 Z M181.156771,14.1417515 C181.156771,16.3852712 180.822543,18.3581612 180.155441,20.0604216 C179.486986,21.762682 178.572258,23.1861939 177.41261,24.3336636 C176.252962,25.4811332 174.872751,26.3444417 173.271976,26.9249423 C171.669849,27.5040897 169.949998,27.7950166 168.108363,27.7950166 C166.318148,27.7950166 164.629419,27.5040897 163.040823,26.9249423 C161.452227,26.3444417 160.06525,25.4811332 158.881246,24.3336636 C157.695888,23.1861939 156.762216,21.762682 156.081582,20.0604216 C155.400949,18.3581612 155.061308,16.3852712 155.061308,14.1417515 C155.061308,11.8968787 155.413127,9.92398868 156.11947,8.22172829 C156.825814,6.52082103 157.777077,5.08919027 158.974613,3.92954229 C160.173502,2.76989431 161.559126,1.89982003 163.135543,1.31931947 C164.711961,0.740172049 166.369568,0.449245193 168.108363,0.449245193 C169.898578,0.449245193 171.58866,0.740172049 173.177256,1.31931947 C174.765852,1.89982003 176.152829,2.76989431 177.336834,3.92954229 C178.522191,5.08919027 179.455864,6.52082103 180.136497,8.22172829 C180.817131,9.92398868 181.156771,11.8968787 181.156771,14.1417515 L181.156771,14.1417515 Z" id="Shape"></path>
                <path d="M186.074111,27.2645825 L186.074111,1.05545557 L203.62309,1.05545557 L203.62309,6.00933103 L191.973837,6.00933103 L191.973837,11.4936406 L202.337599,11.4936406 L202.337599,16.447516 L191.973837,16.447516 L191.973837,27.2645825 L186.074111,27.2645825 L186.074111,27.2645825 Z" id="Shape"></path>
                <path d="M225.596863,27.6055758 C224.15982,27.6055758 222.729542,27.5609219 221.304677,27.4729673 C219.879812,27.3850127 218.398115,27.1766279 216.860938,26.849166 L216.860938,1.43298391 C218.070653,1.20565502 219.394032,1.0365115 220.831075,0.922847052 C222.268119,0.809182606 223.605029,0.752350383 224.840453,0.752350383 C226.504825,0.752350383 228.036589,0.87278057 229.435744,1.1122878 C230.8349,1.35179502 232.039201,1.76044577 233.047297,2.34094634 C234.056745,2.9214469 234.844278,3.68326932 235.411247,4.62911989 C235.978216,5.57497046 236.262377,6.74138419 236.262377,8.12700791 C236.262377,10.2203281 235.254282,11.8711689 233.236738,13.0822365 C234.90111,13.7128036 236.035048,14.5693464 236.641258,15.6545712 C237.246116,16.7384429 237.547868,17.9616888 237.547868,19.3229559 C237.547868,22.0711998 236.546538,24.1388102 234.541172,25.5257871 C232.53716,26.9114108 229.556175,27.6055758 225.596863,27.6055758 L225.596863,27.6055758 Z M222.609112,15.8426588 L222.609112,22.6124591 C223.03806,22.6638787 223.504896,22.7017669 224.008267,22.7261235 C224.512991,22.7518333 225.067782,22.7640117 225.672639,22.7640117 C227.437145,22.7640117 228.86201,22.5123261 229.945881,22.0076018 C231.031106,21.5042307 231.572365,20.5705585 231.572365,19.2092914 C231.572365,17.9982238 231.119061,17.1349153 230.211098,16.6180127 C229.303136,16.1011101 228.005467,15.8426588 226.315385,15.8426588 L222.609112,15.8426588 L222.609112,15.8426588 Z M222.609112,11.342088 L225.483199,11.342088 C227.299123,11.342088 228.596793,11.1093465 229.378912,10.6425104 C230.161032,10.1756742 230.552092,9.42603016 230.552092,8.39222496 C230.552092,7.33270994 230.1475,6.58983159 229.341024,6.16088362 C228.534548,5.73193565 227.34919,5.51813824 225.786304,5.51813824 C225.28158,5.51813824 224.74032,5.52355083 224.15982,5.53708231 C223.579319,5.54926065 223.062417,5.58038306 222.609112,5.63180269 L222.609112,11.342088 L222.609112,11.342088 Z" id="Shape"></path>
                <rect id="Rectangle-path" x="242.275767" y="1.05545557" width="5.89972602" height="26.2104801"></rect>
                <path d="M273.667452,1.05545557 L273.667452,6.08510732 L265.76236,6.08510732 L265.76236,27.2645825 L259.862634,27.2645825 L259.862634,6.08510732 L251.958896,6.08510732 L251.958896,1.05545557 L273.667452,1.05545557 L273.667452,1.05545557 Z" id="Shape"></path>
                <path d="M288.531784,27.7950166 C284.269368,27.7950166 281.023165,26.6096588 278.791824,24.2389432 C276.560483,21.8695807 275.445488,18.5029481 275.445488,14.1417515 C275.445488,11.972655 275.785129,10.0376531 276.465762,8.33539273 C277.146396,6.63313233 278.080068,5.19608898 279.265426,4.02426266 C280.44943,2.8510832 281.862117,1.96206485 283.50078,1.35720762 C285.139442,0.752350383 286.917479,0.449245193 288.833536,0.449245193 C289.943118,0.449245193 290.951213,0.531787231 291.859176,0.69551816 C292.767138,0.859249088 293.561436,1.04868983 294.24207,1.26248724 C294.922703,1.4776378 295.489672,1.69820095 295.94433,1.92552985 C296.397635,2.15150559 296.725097,2.328768 296.928069,2.45461078 L295.225808,7.22039864 C294.419332,6.79145067 293.478894,6.42610066 292.407201,6.12299547 C291.336861,5.81989028 290.119027,5.66969084 288.75776,5.66969084 C287.849798,5.66969084 286.962133,5.81989028 286.092058,6.12299547 C285.221984,6.42610066 284.453396,6.91052771 283.784941,7.5789829 C283.116485,8.2474381 282.580639,9.11074663 282.177401,10.1702617 C281.774162,11.2284235 281.572543,12.5152674 281.572543,14.0280871 C281.572543,15.2378016 281.705152,16.3663271 281.969016,17.4123107 C282.234233,18.4596473 282.663181,19.360844 283.254507,20.1172539 C283.847185,20.8736637 284.622539,21.4717552 285.580568,21.9128815 C286.53995,22.3540078 287.699598,22.5745709 289.060865,22.5745709 C289.917408,22.5745709 290.687349,22.5245045 291.367983,22.4243715 C292.048617,22.3228854 292.653474,22.2038083 293.182555,22.0644341 C293.712989,21.926413 294.178472,21.7680946 294.583063,21.5921854 C294.986301,21.414923 295.351651,21.251192 295.679113,21.0996394 L297.305597,25.8275391 C296.473411,26.3322634 295.301585,26.785568 293.788765,27.1888062 C292.275945,27.5933975 290.523619,27.7950166 288.531784,27.7950166 L288.531784,27.7950166 Z" id="Shape"></path>
                <path d="M305.097024,14.1417515 C305.097024,15.4272423 305.25399,16.5868903 305.569273,17.6206955 C305.884557,18.6545007 306.339214,19.543519 306.93054,20.2863974 C307.523219,21.0306289 308.248506,21.6043637 309.106402,22.0076018 C309.962945,22.41084 310.946684,22.6124591 312.056265,22.6124591 C313.140137,22.6124591 314.11711,22.41084 314.987184,22.0076018 C315.857259,21.6043637 316.587959,21.0306289 317.180638,20.2863974 C317.773316,19.543519 318.226621,18.6545007 318.541905,17.6206955 C318.857188,16.5868903 319.015506,15.4272423 319.015506,14.1417515 C319.015506,12.8549076 318.857188,11.6884939 318.541905,10.6425104 C318.226621,9.59652683 317.773316,8.70074274 317.180638,7.95786439 C316.587959,7.2136329 315.857259,6.63989807 314.987184,6.23665992 C314.11711,5.83342176 313.140137,5.63180269 312.056265,5.63180269 C310.946684,5.63180269 309.962945,5.83883436 309.106402,6.25560399 C308.248506,6.67102048 307.523219,7.25152105 306.93054,7.99575254 C306.339214,8.73863089 305.884557,9.63441498 305.569273,10.6803985 C305.25399,11.726382 305.097024,12.8806174 305.097024,14.1417515 L305.097024,14.1417515 Z M325.104673,14.1417515 C325.104673,16.3852712 324.770446,18.3581612 324.10199,20.0604216 C323.433535,21.762682 322.52016,23.1861939 321.360512,24.3336636 C320.199511,25.4811332 318.8193,26.3444417 317.218526,26.9249423 C315.617751,27.5040897 313.896547,27.7950166 312.056265,27.7950166 C310.26605,27.7950166 308.575968,27.5040897 306.987372,26.9249423 C305.398776,26.3444417 304.013153,25.4811332 302.827795,24.3336636 C301.642437,23.1861939 300.710118,21.762682 300.028131,20.0604216 C299.347498,18.3581612 299.007858,16.3852712 299.007858,14.1417515 C299.007858,11.8968787 299.361029,9.92398868 300.066019,8.22172829 C300.772363,6.52082103 301.724979,5.08919027 302.922515,3.92954229 C304.120051,2.76989431 305.507028,1.89982003 307.082093,1.31931947 C308.65851,0.740172049 310.316117,0.449245193 312.056265,0.449245193 C313.84648,0.449245193 315.535209,0.740172049 317.123805,1.31931947 C318.712401,1.89982003 320.099378,2.76989431 321.284736,3.92954229 C322.468741,5.08919027 323.402413,6.52082103 324.083046,8.22172829 C324.76368,9.92398868 325.104673,11.8968787 325.104673,14.1417515 L325.104673,14.1417515 Z" id="Shape"></path>
                <rect id="Rectangle-path" x="330.020661" y="1.05545557" width="5.89972602" height="26.2104801"></rect>
                <path d="M359.558532,27.2645825 C357.869803,24.264653 356.0417,21.3012585 354.075576,18.3771053 C352.108098,15.451599 350.016131,12.6911767 347.796968,10.0944854 L347.796968,27.2645825 L341.971665,27.2645825 L341.971665,1.05545557 L346.775341,1.05545557 C347.607527,1.8876417 348.527668,2.90791542 349.537117,4.11898303 C350.545212,5.3286975 351.572251,6.620954 352.619588,7.99575254 C353.665572,9.36919793 354.704789,10.794063 355.738595,12.2689945 C356.7724,13.743926 357.74396,15.1620253 358.651923,16.5232923 L358.651923,1.05545557 L364.513761,1.05545557 L364.513761,27.2645825 L359.558532,27.2645825 L359.558532,27.2645825 Z" id="Shape"></path>
            </g>
        </g>
    </g>
</svg>