<?xml version="1.0" encoding="utf-8"?>
<!-- Generator: Adobe Illustrator 19.2.1, SVG Export Plug-In . SVG Version: 6.00 Build 0)  -->
<svg version="1.1" id="Layer_1" xmlns="http://www.w3.org/2000/svg" xmlns:xlink="http://www.w3.org/1999/xlink" x="0px" y="0px"
	 viewBox="0 0 1244 215.5" style="enable-background:new 0 0 1244 215.5;" xml:space="preserve">
<style type="text/css">
	.st0{fill:#FFFFFF;}
	.st1{fill:#0276DD;}
</style>
<title>use_on_light_bg</title>
<desc>Created with Sketch.</desc>
<g>
	<path d="M90,165.7v-23.4l-20.2,11.9L8,117.8V45.1L69.7,8.7l61.7,36.4v23.4l20.2-11.9L213.3,93v72.7l-61.7,36.4L90,165.7z
		 M153.5,189.5l49.9-29.5v-59.2l-49.9,29.5V189.5z M149.5,189.3V130l-19.4-11.4L100,136.4V160L149.5,189.3z M71.5,141.6L90,130.7
		V93.1l31.5-18.6V52.8l-50,29.5V141.6z M67.5,141.3V82L18,52.8v59.3L67.5,141.3z M151.8,126.7l49.5-29.2l-49.6-29.3l-20.2,11.9v34.6
		L151.8,126.7z M100,124.8l20.3-12l-20.3-12V124.8z M121.5,108.8V86.1l-19.3,11.4L121.5,108.8z M69.8,78.7l49.5-29.2L69.7,20.3
		L20.3,49.5L69.8,78.7z"/>
	<path class="st0" d="M69.7,10.4L130,46v25.2l21.7-12.8L211.9,94v71l-60.2,35.6L91.5,165v-25.2l-21.7,12.8L9.5,117V46L69.7,10.4
		 M69.8,80.5l52.4-30.9l-52.4-31L17.3,49.5L69.8,80.5 M69,143.9V81.2l-52.5-31V113L69,143.9 M70,144.2l21.5-12.7V93.9L123,75.3V50.2
		L70,81.5V144.2 M151.8,128.5l52.5-31l-52.5-31L130,79.3v36.3L151.8,128.5 M123,111.5v-28l-23.7,14L123,111.5 M98.5,127.4L123,113
		v-0.3L98.5,98.2V127.4 M152,192.1l52.9-31.2V98.2L152,129.5V192.1 M151,191.9v-62.7l-21-12.4v0.2l-31.5,18.6v25.3L151,191.9
		 M69.7,7l-1.5,0.9L8,43.4l-1.5,0.9V46v71v1.7l1.5,0.9l60.2,35.6l1.5,0.9l1.5-0.9L88.4,145v19.9v1.7l1.5,0.9l60.2,35.6l1.5,0.9
		l1.5-0.9l60.2-35.6l1.5-0.9v-1.7v-71v-1.7l-1.5-0.9l-60.2-35.6l-1.5-0.9l-1.5,0.9L133,65.9V46v-1.7l-1.5-0.9L71.3,7.9L69.7,7
		L69.7,7z"/>
</g>
<g id="Group" transform="translate(1031.944463, 159.974216) rotate(-0.000000) translate(-1031.944463, -159.974216) translate(849.269460, 145.766160)">
	<g id="Shape_18_">
		<polygon class="st1" points="11.6,42.8 11.6,13.6 32.1,13.6 32.1,21.5 20.5,21.5 20.5,24 30.8,24 30.8,31.9 20.5,31.9 20.5,42.8
					"/>
		<path class="st0" d="M30.6,15.1v5H19v5.5h10.4v5H19v10.8h-5.9V15.1H30.6 M33.6,12.1h-3H13.1h-3v3v26.2v3h3H19h3v-3v-7.8h7.4h3v-3
			v-5V23h1.3v-3v-5v-2.9H33.6z"/>
	</g>
	<g id="Shape_19_">
		<path class="st1" d="M45,43.3c-2,0-3.8-0.3-5.3-0.9c-1.5-0.6-2.8-1.4-3.9-2.5c-1-1.1-1.8-2.4-2.3-3.9c-0.5-1.4-0.7-3-0.7-4.7V13.6
			h8.9v17.3c0,0.9,0.1,1.6,0.3,2.2c0.2,0.5,0.4,1,0.7,1.3c0.2,0.3,0.5,0.5,0.9,0.6s0.9,0.2,1.5,0.2c1,0,1.8-0.3,2.4-0.9
			c0.6-0.6,0.9-1.8,0.9-3.4V13.6h8.9v17.8c0,1.7-0.2,3.3-0.7,4.7c-0.5,1.5-1.3,2.8-2.3,3.9c-1,1.1-2.4,1.9-3.9,2.5
			C48.9,43,47.1,43.3,45,43.3z"/>
		<path class="st0" d="M55.8,15.1v16.3c0,1.5-0.2,2.9-0.6,4.2c-0.4,1.3-1.1,2.4-2,3.3c-0.9,0.9-2,1.6-3.4,2.1s-3,0.8-4.8,0.8
			s-3.4-0.3-4.8-0.8c-1.3-0.5-2.4-1.2-3.3-2.2c-0.9-0.9-1.5-2-1.9-3.3s-0.6-2.7-0.6-4.2V15.1h5.9v15.8c0,1.1,0.1,2,0.4,2.7
			c0.2,0.7,0.6,1.3,1,1.8s0.9,0.8,1.5,1s1.2,0.3,1.9,0.3c1.4,0,2.6-0.4,3.5-1.3c0.9-0.9,1.3-2.4,1.3-4.5V15.1H55.8 M58.8,12.1h-3
			h-5.9h-3v3v15.8c0,1.9-0.4,2.4-0.4,2.4c-0.2,0.2-0.6,0.5-1.4,0.5c-0.4,0-0.7,0-1-0.1c-0.1,0-0.2-0.1-0.2-0.2
			c-0.1-0.1-0.2-0.3-0.4-0.7c-0.1-0.3-0.2-0.9-0.2-1.8V15.1v-3h-3h-5.9h-3v3v16.3c0,1.8,0.3,3.6,0.8,5.1c0.6,1.7,1.4,3.2,2.6,4.4
			c1.2,1.2,2.7,2.2,4.4,2.9c1.7,0.6,3.6,1,5.8,1s4.2-0.3,5.9-0.9c1.8-0.7,3.3-1.6,4.5-2.9c1.2-1.2,2.1-2.7,2.6-4.4
			c0.5-1.6,0.8-3.3,0.8-5.2V15.1L58.8,12.1L58.8,12.1z"/>
	</g>
	<g id="Shape_20_">
		<polygon class="st1" points="65.6,42.8 65.6,21.6 57.7,21.6 57.7,13.6 82.5,13.6 82.5,21.6 74.5,21.6 74.5,42.8 		"/>
		<path class="st0" d="M81,15.1v5h-8v21.2h-5.9V20.1h-7.9v-5H81 M84,12.1h-3H59.2h-3v3v5v3h3h4.9v18.2v3h3H73h3v-3V23.1h5h3v-3v-5
			V12.1L84,12.1z"/>
	</g>
	<g id="Shape_21_">
		<path class="st1" d="M95,43.3c-2,0-3.8-0.3-5.3-0.9c-1.5-0.6-2.8-1.4-3.9-2.5c-1-1.1-1.8-2.4-2.3-3.9c-0.5-1.4-0.7-3-0.7-4.7V13.6
			h8.9v17.3c0,0.9,0.1,1.7,0.3,2.2c0.2,0.5,0.4,1,0.7,1.3c0.2,0.3,0.5,0.5,0.9,0.6s0.9,0.2,1.5,0.2c1,0,1.8-0.3,2.4-0.9
			c0.6-0.6,0.9-1.8,0.9-3.4V13.6h8.9v17.8c0,1.7-0.2,3.3-0.7,4.7c-0.5,1.5-1.3,2.8-2.3,3.9c-1,1.1-2.4,1.9-3.9,2.5
			C98.8,43,97,43.3,95,43.3z"/>
		<path class="st0" d="M105.8,15.1v16.3c0,1.5-0.2,2.9-0.6,4.2s-1.1,2.4-2,3.3c-0.9,0.9-2,1.6-3.4,2.1s-3,0.8-4.8,0.8
			s-3.4-0.3-4.8-0.8c-1.3-0.5-2.4-1.2-3.3-2.2c-0.9-0.9-1.5-2-1.9-3.3s-0.6-2.7-0.6-4.2V15.1h5.9v15.8c0,1.1,0.1,2,0.4,2.7
			c0.2,0.7,0.6,1.3,1,1.8s0.9,0.8,1.5,1s1.2,0.3,1.9,0.3c1.4,0,2.6-0.4,3.5-1.3c0.9-0.9,1.3-2.4,1.3-4.5V15.1H105.8 M108.8,12.1h-3
			h-5.9h-3v3v15.8c0,1.9-0.4,2.4-0.4,2.4c-0.2,0.2-0.6,0.5-1.4,0.5c-0.4,0-0.7,0-1-0.1c-0.1,0-0.2-0.1-0.2-0.2
			c-0.1-0.1-0.2-0.3-0.4-0.7c-0.1-0.3-0.2-0.9-0.2-1.8V15.1v-3h-3h-5.9h-3v3v16.3c0,1.9,0.3,3.6,0.8,5.2c0.6,1.7,1.4,3.2,2.6,4.4
			s2.7,2.2,4.4,2.9c1.7,0.6,3.6,1,5.8,1c2.2,0,4.2-0.3,5.9-0.9c1.8-0.7,3.3-1.6,4.5-2.9c1.2-1.2,2.1-2.7,2.6-4.4
			c0.5-1.6,0.8-3.3,0.8-5.2V15.1L108.8,12.1L108.8,12.1z"/>
	</g>
	<g id="Shape_22_">
		<path class="st1" d="M125.4,42.8l-1.9-3.4c-0.5-0.9-1-1.7-1.5-2.5s-1-1.6-1.5-2.3c-0.3-0.5-0.7-0.9-1-1.4h-0.7v9.6H110V14.2
			l1.2-0.2c1.3-0.3,2.7-0.4,4.2-0.6c1.4-0.1,2.7-0.2,3.8-0.2c4.2,0,7.5,0.8,9.9,2.4c2.5,1.7,3.8,4.3,3.8,7.8c0,2.2-0.5,4-1.6,5.4
			c-0.7,0.9-1.5,1.7-2.6,2.3c0.2,0.3,0.4,0.6,0.6,0.9c0.6,0.9,1.2,1.8,1.8,2.7s1.2,1.9,1.7,3c0.5,1,1,2,1.5,3l1,2.1H125.4z
			 M119,25.5c2.5,0,3.6-0.4,4-0.6c0.3-0.2,0.7-0.5,0.7-1.5c0-0.9-0.3-1.2-0.7-1.4c-0.5-0.3-1.5-0.6-3.6-0.6c-0.2,0-0.4,0-0.6,0v4.2
			L119,25.5L119,25.5z"/>
		<path class="st0" d="M119.1,14.8c3.9,0,6.9,0.7,9,2.1s3.1,3.6,3.1,6.5c0,1.8-0.4,3.3-1.3,4.5c-0.8,1.1-2.1,2-3.6,2.7
			c0.5,0.7,1.1,1.4,1.7,2.3c0.6,0.8,1.2,1.7,1.7,2.6c0.6,0.9,1.1,1.9,1.6,2.9s1,2,1.5,2.9h-6.6c-0.5-0.9-1-1.7-1.5-2.6
			c-0.5-0.9-1-1.7-1.5-2.6c-0.5-0.8-1-1.6-1.5-2.4c-0.5-0.7-1-1.4-1.5-2h-2.9v9.6h-5.9V15.4c1.3-0.3,2.6-0.4,4-0.5
			C116.8,14.8,118.1,14.8,119.1,14.8 M117.4,27h1.7c2.2,0,3.8-0.3,4.8-0.8c1-0.6,1.4-1.5,1.4-2.8s-0.5-2.2-1.5-2.7s-2.4-0.8-4.3-0.8
			c-0.4,0-0.8,0-1.2,0c-0.3,0-0.7,0.1-1,0.1L117.4,27 M119.1,11.8c-1.2,0-2.5,0.1-3.9,0.2c-1.5,0.1-2.9,0.3-4.3,0.6l-2.4,0.5v2.5
			v25.8v3h3h5.9h3v-3V37c0.1,0.2,0.3,0.4,0.4,0.7c0.5,0.8,1,1.6,1.4,2.5c0.5,0.9,1,1.8,1.5,2.6l0.9,1.5h1.8h6.6h4.7l-2-4.3
			c-0.5-1-1-2-1.5-3.1c-0.6-1-1.1-2.1-1.7-3c-0.5-0.8-1-1.7-1.6-2.4c0.7-0.5,1.2-1.1,1.7-1.8c1.2-1.7,1.9-3.8,1.9-6.3
			c0-5-2.4-7.7-4.5-9C127.2,12.6,123.7,11.8,119.1,11.8L119.1,11.8z M120.4,24v-1.2c1.1,0.1,1.6,0.3,1.9,0.4c0,0,0,0.1,0,0.2
			s0,0.2,0,0.3C122,23.7,121.5,23.9,120.4,24L120.4,24z"/>
	</g>
	<g id="Shape_23_">
		<polygon class="st1" points="135.2,42.8 135.2,13.6 155.9,13.6 155.9,21.5 144.1,21.5 144.1,23.7 154.6,23.7 154.6,31.5
			144.1,31.5 144.1,34.8 156.8,34.8 156.8,42.8 		"/>
		<path class="st0" d="M154.4,15.1v5h-11.8v5.1h10.5V30h-10.5v6.3h12.7v5h-18.6V15.1H154.4 M157.4,12.1h-3h-17.7h-3v3v26.2v3h3h18.6
			h3v-3v-5v-3h-3h-9.7V33h7.5h3v-3v-4.8V23h1.3v-3v-5L157.4,12.1L157.4,12.1z"/>
	</g>
	<g id="Shape_24_">
		<path class="st1" d="M180.6,43.3c-2,0-3.8-0.3-5.6-1s-3.4-1.6-4.7-2.9c-1.3-1.3-2.4-2.9-3.1-4.8c-0.7-1.9-1.1-4.1-1.1-6.5
			s0.4-4.6,1.2-6.5s1.9-3.5,3.2-4.8s2.9-2.3,4.7-2.9c1.7-0.6,3.6-1,5.5-1c2,0,3.8,0.3,5.6,1s3.4,1.6,4.7,2.9s2.4,2.9,3.1,4.8
			c0.7,1.9,1.1,4,1.1,6.5c0,2.4-0.4,4.6-1.1,6.5c-0.7,1.9-1.8,3.5-3.1,4.8s-2.9,2.3-4.7,2.9C184.5,43,182.6,43.3,180.6,43.3z
			 M180.6,21.1c-0.9,0-1.6,0.2-2.3,0.5s-1.2,0.8-1.7,1.3c-0.5,0.6-0.8,1.3-1.1,2.2c-0.3,0.9-0.4,1.9-0.4,3s0.1,2.2,0.4,3
			c0.3,0.8,0.6,1.6,1.1,2.2s1,1,1.6,1.3c0.7,0.3,1.4,0.5,2.3,0.5c0.9,0,1.6-0.2,2.3-0.5s1.2-0.7,1.7-1.3s0.8-1.3,1.1-2.2
			c0.3-0.9,0.4-1.9,0.4-3s-0.1-2.2-0.4-3.1c-0.3-0.9-0.6-1.6-1.1-2.2c-0.4-0.6-1-1-1.7-1.3C182.2,21.3,181.5,21.1,180.6,21.1z"/>
		<path class="st0" d="M180.6,14.4c1.8,0,3.5,0.3,5.1,0.9c1.6,0.6,3,1.5,4.2,2.6c1.2,1.2,2.1,2.6,2.8,4.3s1,3.7,1,5.9
			s-0.3,4.2-1,5.9s-1.6,3.1-2.7,4.3c-1.2,1.1-2.5,2-4.1,2.6s-3.3,0.9-5.2,0.9c-1.8,0-3.5-0.3-5.1-0.9c-1.6-0.6-3-1.4-4.2-2.6
			c-1.2-1.1-2.1-2.6-2.8-4.3s-1-3.7-1-5.9s0.4-4.2,1.1-5.9c0.7-1.7,1.7-3.1,2.9-4.3c1.2-1.2,2.6-2,4.2-2.6
			C177.2,14.7,178.9,14.4,180.6,14.4 M180.6,36.6c1.1,0,2.1-0.2,2.9-0.6c0.9-0.4,1.6-1,2.2-1.7c0.6-0.7,1-1.6,1.4-2.7
			c0.3-1,0.5-2.2,0.5-3.5s-0.2-2.5-0.5-3.5s-0.8-1.9-1.4-2.7c-0.6-0.7-1.3-1.3-2.2-1.7c-0.9-0.4-1.8-0.6-2.9-0.6
			c-1.1,0-2.1,0.2-2.9,0.6c-0.9,0.4-1.6,1-2.2,1.7c-0.6,0.7-1,1.6-1.4,2.7c-0.3,1-0.5,2.2-0.5,3.5s0.2,2.4,0.5,3.5
			c0.3,1,0.8,1.9,1.4,2.7c0.6,0.7,1.3,1.3,2.2,1.7C178.5,36.4,179.5,36.6,180.6,36.6 M180.6,11.4c-2.1,0-4.1,0.4-6,1.1
			c-2,0.7-3.7,1.8-5.2,3.3c-1.5,1.4-2.7,3.2-3.5,5.3c-0.9,2.1-1.3,4.4-1.3,7.1c0,2.6,0.4,5,1.2,7c0.8,2.1,2,3.9,3.5,5.3
			c1.5,1.4,3.2,2.5,5.2,3.3c1.9,0.7,4,1.1,6.1,1.1c2.2,0,4.3-0.4,6.2-1c2-0.7,3.8-1.8,5.2-3.3c1.5-1.4,2.6-3.2,3.4-5.3
			c0.8-2,1.2-4.4,1.2-7s-0.4-5-1.2-7c-0.8-2.1-2-3.9-3.5-5.3c-1.5-1.5-3.2-2.6-5.2-3.3C184.8,11.8,182.7,11.4,180.6,11.4L180.6,11.4
			z M180.6,33.6c-0.7,0-1.2-0.1-1.7-0.3c-0.4-0.2-0.8-0.5-1.1-0.9c-0.4-0.4-0.6-1-0.8-1.7s-0.3-1.6-0.3-2.6s0.1-1.8,0.3-2.6
			c0.2-0.7,0.5-1.2,0.8-1.7c0.3-0.4,0.7-0.7,1.1-0.9c0.4-0.2,1-0.3,1.6-0.3s1.2,0.1,1.7,0.3c0.4,0.2,0.8,0.5,1.1,0.9
			c0.4,0.4,0.6,1,0.8,1.7c0.2,0.8,0.3,1.6,0.3,2.6s-0.1,1.9-0.3,2.6s-0.5,1.2-0.8,1.7c-0.3,0.4-0.7,0.7-1.1,0.9
			S181.3,33.6,180.6,33.6L180.6,33.6z"/>
	</g>
	<g id="Shape_25_">
		<polygon class="st1" points="197.1,42.8 197.1,13.6 217.6,13.6 217.6,21.5 206,21.5 206,24 216.3,24 216.3,31.9 206,31.9
			206,42.8 		"/>
		<path class="st0" d="M216.1,15.1v5h-11.6v5.5h10.4v5h-10.4v10.8h-5.9V15.1H216.1 M219.1,12.1h-3h-17.5h-3v3v26.2v3h3h5.9h3v-3
			v-7.8h7.4h3v-3v-5V23h1.3v-3v-5L219.1,12.1L219.1,12.1z"/>
	</g>
	<g id="Shape_26_">
		<path class="st1" d="M238.1,43.1c-1.5,0-2.9,0-4.4-0.1s-3.1-0.3-4.7-0.7l-1.2-0.3V14.2L229,14c1.2-0.2,2.6-0.4,4.1-0.5
			s2.9-0.2,4.1-0.2c1.7,0,3.4,0.1,4.8,0.4c1.6,0.3,3,0.7,4.1,1.4c1.2,0.7,2.2,1.7,2.9,2.8c0.7,1.2,1.1,2.6,1.1,4.3
			c0,1.8-0.6,3.4-1.8,4.7c0.9,0.6,1.5,1.3,2,2.1c0.7,1.3,1.1,2.8,1.1,4.4c0,3.3-1.2,5.8-3.7,7.4C245.6,42.3,242.4,43.1,238.1,43.1z
			 M236.6,35.2c0.5,0,1,0,1.6,0c1.5,0,2.8-0.2,3.6-0.6c0.4-0.2,0.8-0.4,0.8-1.4c0-0.8-0.3-1.1-0.6-1.3c-0.5-0.3-1.4-0.6-3.2-0.6
			h-2.2L236.6,35.2L236.6,35.2z M238,23.8c2,0,2.8-0.3,3.1-0.5c0.2-0.1,0.4-0.3,0.4-1s-0.3-0.8-0.4-0.9c-0.4-0.2-1.2-0.5-2.8-0.5
			c-0.5,0-1,0-1.6,0h-0.1v2.8h1.4V23.8z"/>
		<path class="st0" d="M237.3,14.8c1.7,0,3.2,0.1,4.6,0.4c1.4,0.2,2.6,0.6,3.6,1.2c1,0.6,1.8,1.3,2.4,2.3c0.6,0.9,0.9,2.1,0.9,3.5
			c0,2.1-1,3.7-3,5c1.7,0.6,2.8,1.5,3.4,2.6c0.6,1.1,0.9,2.3,0.9,3.7c0,2.7-1,4.8-3,6.2s-5,2.1-8.9,2.1c-1.4,0-2.9,0-4.3-0.1
			c-1.4-0.1-2.9-0.3-4.4-0.6V15.4c1.2-0.2,2.5-0.4,4-0.5C234.8,14.8,236.1,14.8,237.3,14.8 M235.1,25.3h2.9c1.8,0,3.1-0.2,3.9-0.7
			c0.8-0.5,1.2-1.2,1.2-2.3c0-1.1-0.4-1.8-1.2-2.2c-0.8-0.4-2-0.6-3.6-0.6c-0.5,0-1,0-1.6,0s-1.1,0-1.6,0.1L235.1,25.3 M238.2,36.8
			c1.8,0,3.2-0.3,4.3-0.8s1.6-1.4,1.6-2.8c0-1.2-0.5-2.1-1.4-2.6s-2.2-0.8-3.9-0.8h-3.7v6.8c0.4,0.1,0.9,0.1,1.4,0.1
			C237,36.8,237.6,36.8,238.2,36.8 M237.3,11.8c-1.3,0-2.7,0.1-4.2,0.2c-1.5,0.1-3,0.3-4.3,0.6l-2.4,0.5v2.5V41v2.4l2.4,0.5
			c1.7,0.4,3.3,0.6,4.9,0.7c1.5,0.1,3,0.1,4.5,0.1c4.6,0,8.1-0.9,10.7-2.6c2.8-1.9,4.3-4.9,4.3-8.7c0-1.9-0.4-3.6-1.3-5.1
			c-0.3-0.6-0.7-1.1-1.2-1.6c1-1.6,1.2-3.2,1.2-4.4c0-1.9-0.4-3.6-1.3-5c-0.8-1.4-2-2.5-3.4-3.3c-1.3-0.8-2.9-1.3-4.6-1.6
			C240.9,11.9,239.2,11.8,237.3,11.8L237.3,11.8z M238.1,32.8h0.7c1.3,0,1.9,0.2,2.3,0.3c0,0,0,0,0,0.1v0.1
			c-0.5,0.2-1.4,0.4-2.9,0.4c0,0,0,0-0.1,0V32.8L238.1,32.8z"/>
	</g>
	<g id="Rectangle-path">
		<rect x="253.3" y="13.6" class="st1" width="8.9" height="29.2"/>
		<path class="st0" d="M260.7,15.1v26.2h-5.9V15.1H260.7 M263.7,12.1h-3h-5.9h-3v3v26.2v3h3h5.9h3v-3V15.1V12.1L263.7,12.1z"/>
	</g>
	<g id="Shape_27_">
		<polygon class="st1" points="270.9,42.8 270.9,21.6 263,21.6 263,13.6 287.7,13.6 287.7,21.6 279.8,21.6 279.8,42.8 		"/>
		<path class="st0" d="M286.2,15.1v5h-7.9v21.2h-5.9V20.1h-7.9v-5H286.2 M289.2,12.1h-3h-21.7h-3v3v5v3h3h4.9v18.2v3h3h5.9h3v-3
			V23.1h4.9h3v-3v-5L289.2,12.1L289.2,12.1z"/>
	</g>
	<g id="Shape_28_">
		<path class="st1" d="M301,43.3c-4.7,0-8.3-1.4-10.8-4s-3.8-6.4-3.8-11.1c0-2.4,0.4-4.5,1.1-6.4c0.8-1.9,1.8-3.5,3.1-4.8
			c1.3-1.3,2.9-2.3,4.8-3c1.8-0.7,3.8-1,5.9-1c1.2,0,2.3,0.1,3.3,0.3s1.8,0.4,2.6,0.6c0.8,0.2,1.4,0.5,1.9,0.8s0.9,0.5,1.1,0.6
			l1,0.6l-2.7,7.5l-1.5-0.8c-0.7-0.4-1.6-0.7-2.5-1s-2-0.4-3.2-0.4c-0.7,0-1.5,0.1-2.2,0.4c-0.7,0.2-1.2,0.6-1.7,1.1
			s-0.9,1.2-1.3,2.1c-0.3,0.9-0.5,2-0.5,3.3c0,1.1,0.1,2.1,0.4,3c0.2,0.8,0.6,1.6,1,2.1c0.4,0.6,1,1,1.8,1.4
			c0.8,0.3,1.7,0.5,2.9,0.5c0.8,0,1.5,0,2.1-0.1s1.2-0.2,1.7-0.3c0.4-0.1,0.8-0.3,1.2-0.4c0.4-0.2,0.7-0.3,1.1-0.5l1.5-0.7l2.6,7.4
			l-1,0.6c-1,0.6-2.2,1.1-3.9,1.5C305,43.1,303.1,43.3,301,43.3z"/>
		<path class="st0" d="M301.3,14.4c1.1,0,2.1,0.1,3,0.2s1.7,0.4,2.4,0.6c0.7,0.2,1.2,0.4,1.7,0.7c0.5,0.2,0.8,0.4,1,0.5l-1.7,4.8
			c-0.8-0.4-1.7-0.8-2.8-1.1c-1.1-0.3-2.3-0.5-3.6-0.5c-0.9,0-1.8,0.2-2.7,0.5c-0.9,0.3-1.6,0.8-2.3,1.5c-0.7,0.7-1.2,1.5-1.6,2.6
			s-0.6,2.3-0.6,3.9c0,1.2,0.1,2.3,0.4,3.4c0.3,1,0.7,1.9,1.3,2.7c0.6,0.8,1.4,1.4,2.3,1.8c1,0.4,2.1,0.7,3.5,0.7
			c0.9,0,1.6-0.1,2.3-0.2c0.7-0.1,1.3-0.2,1.8-0.4c0.5-0.1,1-0.3,1.4-0.5s0.8-0.3,1.1-0.5l1.6,4.7c-0.8,0.5-2,1-3.5,1.4
			s-3.3,0.6-5.3,0.6c-4.3,0-7.5-1.2-9.7-3.6c-2.2-2.4-3.3-5.7-3.3-10.1c0-2.2,0.3-4.1,1-5.8s1.6-3.1,2.8-4.3
			c1.2-1.2,2.6-2.1,4.2-2.7C297.6,14.8,299.4,14.4,301.3,14.4 M301.3,11.4c-2.3,0-4.4,0.4-6.4,1.1c-2,0.8-3.8,1.9-5.3,3.4
			s-2.6,3.2-3.5,5.3c-0.8,2-1.2,4.4-1.2,6.9c0,5.1,1.4,9.2,4.2,12.2c2.8,3,6.8,4.5,11.9,4.5c2.2,0,4.3-0.2,6-0.7
			c1.8-0.5,3.2-1,4.3-1.7l2.1-1.3l-0.8-2.3l-1.6-4.7l-1.1-3.1l-3,1.4c-0.3,0.1-0.7,0.3-1,0.5c-0.3,0.1-0.6,0.2-0.9,0.3
			c-0.4,0.1-0.9,0.2-1.5,0.3c-0.5,0.1-1.2,0.1-1.9,0.1c-0.9,0-1.7-0.1-2.2-0.4c-0.5-0.2-0.9-0.5-1.2-0.9c-0.3-0.4-0.6-0.9-0.7-1.6
			c-0.2-0.8-0.3-1.7-0.3-2.6c0-1.1,0.1-2.1,0.4-2.8c0.3-0.7,0.6-1.2,0.9-1.5s0.7-0.6,1.2-0.7c0.6-0.2,1.1-0.3,1.7-0.3
			c1.1,0,2,0.1,2.8,0.3c0.9,0.2,1.6,0.5,2.2,0.9l3.1,1.6l1.2-3.3l1.7-4.8l0.8-2.3l-2.1-1.3c-0.3-0.2-0.7-0.4-1.2-0.7
			c-0.6-0.3-1.3-0.6-2.1-0.8c-0.8-0.3-1.7-0.5-2.8-0.7C303.8,11.5,302.6,11.4,301.3,11.4L301.3,11.4z"/>
	</g>
	<g id="Shape_29_">
		<path class="st1" d="M324.6,43.3c-2,0-3.8-0.3-5.6-1c-1.8-0.7-3.4-1.6-4.7-2.9c-1.3-1.3-2.4-2.9-3.1-4.8c-0.7-1.9-1.1-4.1-1.1-6.5
			s0.4-4.6,1.2-6.5c0.8-1.9,1.9-3.5,3.2-4.8c1.3-1.3,2.9-2.3,4.7-2.9c1.7-0.6,3.6-1,5.5-1c2,0,3.8,0.3,5.6,1
			c1.8,0.7,3.4,1.6,4.7,2.9c1.3,1.3,2.4,2.9,3.1,4.8s1.1,4.1,1.1,6.5s-0.4,4.6-1.1,6.5s-1.8,3.5-3.1,4.8c-1.3,1.3-2.9,2.3-4.7,2.9
			C328.5,43,326.6,43.3,324.6,43.3z M324.6,21.1c-0.9,0-1.6,0.2-2.3,0.5c-0.7,0.3-1.2,0.8-1.7,1.3c-0.5,0.6-0.8,1.3-1.1,2.2
			c-0.3,0.9-0.4,1.9-0.4,3s0.1,2.2,0.4,3s0.6,1.6,1.1,2.2s1,1,1.6,1.3c0.7,0.3,1.4,0.5,2.3,0.5s1.6-0.2,2.3-0.5
			c0.7-0.3,1.2-0.7,1.7-1.3s0.8-1.3,1.1-2.2c0.3-0.9,0.4-1.9,0.4-3s-0.1-2.2-0.4-3.1s-0.6-1.6-1.1-2.2s-1-1-1.7-1.3
			C326.2,21.3,325.4,21.1,324.6,21.1z"/>
		<path class="st0" d="M324.6,14.4c1.8,0,3.5,0.3,5.1,0.9c1.6,0.6,3,1.5,4.2,2.6c1.2,1.2,2.1,2.6,2.8,4.3c0.7,1.7,1,3.7,1,5.9
			s-0.3,4.2-1,5.9s-1.6,3.1-2.7,4.3c-1.2,1.1-2.5,2-4.1,2.6s-3.3,0.9-5.2,0.9c-1.8,0-3.5-0.3-5.1-0.9c-1.6-0.6-3-1.4-4.2-2.6
			c-1.2-1.1-2.1-2.6-2.8-4.3c-0.7-1.7-1-3.7-1-5.9s0.4-4.2,1.1-5.9s1.7-3.1,2.9-4.3c1.2-1.2,2.6-2,4.2-2.6
			C321.2,14.7,322.8,14.4,324.6,14.4 M324.6,36.6c1.1,0,2.1-0.2,2.9-0.6c0.9-0.4,1.6-1,2.2-1.7s1-1.6,1.4-2.7c0.3-1,0.5-2.2,0.5-3.5
			s-0.2-2.5-0.5-3.5s-0.8-1.9-1.4-2.7c-0.6-0.7-1.3-1.3-2.2-1.7c-0.9-0.4-1.8-0.6-2.9-0.6s-2.1,0.2-2.9,0.6c-0.9,0.4-1.6,1-2.2,1.7
			s-1,1.6-1.4,2.7c-0.3,1-0.5,2.2-0.5,3.5s0.2,2.4,0.5,3.5c0.3,1,0.8,1.9,1.4,2.7c0.6,0.7,1.3,1.3,2.2,1.7
			C322.5,36.4,323.4,36.6,324.6,36.6 M324.6,11.4c-2.1,0-4.1,0.4-6,1.1c-2,0.7-3.7,1.8-5.2,3.3c-1.5,1.4-2.7,3.2-3.5,5.3
			c-0.9,2.1-1.3,4.4-1.3,7.1c0,2.6,0.4,5,1.2,7c0.8,2.1,2,3.9,3.5,5.3c1.5,1.4,3.2,2.5,5.2,3.3c1.9,0.7,4,1.1,6.1,1.1
			c2.2,0,4.3-0.4,6.2-1c2-0.7,3.8-1.8,5.2-3.3c1.5-1.4,2.6-3.2,3.4-5.3c0.8-2,1.2-4.4,1.2-7s-0.4-5-1.2-7c-0.8-2.1-2-3.9-3.5-5.3
			c-1.5-1.5-3.2-2.6-5.2-3.3C328.7,11.8,326.7,11.4,324.6,11.4L324.6,11.4z M324.6,33.6c-0.7,0-1.2-0.1-1.7-0.3
			c-0.4-0.2-0.8-0.5-1.1-0.9c-0.4-0.4-0.6-1-0.8-1.7c-0.2-0.7-0.3-1.6-0.3-2.6s0.1-1.8,0.3-2.6c0.2-0.7,0.5-1.2,0.8-1.7
			c0.3-0.4,0.7-0.7,1.1-0.9c0.4-0.2,1-0.3,1.6-0.3s1.2,0.1,1.7,0.3c0.4,0.2,0.8,0.5,1.1,0.9c0.4,0.4,0.6,1,0.8,1.7
			c0.2,0.8,0.3,1.6,0.3,2.6s-0.1,1.9-0.3,2.6c-0.2,0.7-0.5,1.2-0.8,1.7c-0.3,0.4-0.7,0.7-1.1,0.9C325.8,33.5,325.2,33.6,324.6,33.6
			L324.6,33.6z"/>
	</g>
	<g id="Rectangle-path_1_">
		<rect x="341" y="13.6" class="st1" width="8.9" height="29.2"/>
		<path class="st0" d="M348.4,15.1v26.2h-5.9V15.1H348.4 M351.4,12.1h-3h-5.9h-3v3v26.2v3h3h5.9h3v-3V15.1V12.1L351.4,12.1z"/>
	</g>
	<g id="Shape_30_">
		<path class="st1" d="M371.2,42.8l-0.4-0.8c-1.7-3-3.5-5.9-5.4-8.8c-1.1-1.7-2.3-3.3-3.5-4.9v14.4H353V13.6h6.9l0.4,0.4
			c0.9,0.9,1.8,1.9,2.9,3.2c1,1.2,2.1,2.5,3.1,3.9c1.1,1.4,2.1,2.8,3.2,4.3c0.1,0.1,0.1,0.2,0.2,0.3V13.6h8.9v29.2
			C378.6,42.8,371.2,42.8,371.2,42.8z"/>
		<path class="st0" d="M377,15.1v26.2h-5c-1.7-3-3.5-6-5.5-8.9s-4.1-5.7-6.3-8.3v17.2h-5.8V15.1h4.8c0.8,0.8,1.8,1.9,2.8,3.1
			s2,2.5,3.1,3.9c1,1.4,2.1,2.8,3.1,4.3c1,1.5,2,2.9,2.9,4.3V15.1H377 M380,12.1h-3h-5.9h-3v3v6c-0.2-0.3-0.4-0.6-0.6-0.9
			c-1.1-1.4-2.1-2.7-3.2-4s-2.1-2.4-2.9-3.3l-0.9-0.9h-1.2h-4.8h-3v3v26.2v3h3h5.8h3v-3v-8.4c0.3,0.4,0.5,0.8,0.8,1.2
			c1.9,2.8,3.7,5.8,5.4,8.7l0.9,1.5h1.8h5h3v-3V15.1v-3H380z"/>
	</g>
</g>
<g>
	<g>
		<path d="M248.9,129.7c-3.2,0-6.1-0.5-8.8-1.5s-5-2.5-7-4.5c-2-1.9-3.5-4.4-4.6-7.3c-1.1-2.8-1.6-6.1-1.6-9.7
			c0-4.3,0.7-8.6,2.1-12.8c1.4-4.3,3.5-8.2,6.2-11.5c2.7-3.4,6.1-6.2,10.1-8.3c4-2.1,8.7-3.2,13.8-3.2c3.2,0,6.1,0.5,8.8,1.5
			c2.7,1,5.1,2.5,7,4.5c1.9,1.9,3.5,4.4,4.6,7.2c1.1,2.8,1.6,6.1,1.6,9.7c0,4.3-0.7,8.6-2.1,12.8c-1.4,4.3-3.4,8.2-6.1,11.5
			c-2.7,3.4-6.1,6.2-10.1,8.3C258.7,128.6,254.1,129.7,248.9,129.7z M258.1,82.2c-2.6,0-5.1,0.7-7.2,2c-2.2,1.4-4.1,3.2-5.7,5.3
			c-1.6,2.2-2.9,4.8-3.8,7.6c-0.9,2.8-1.4,5.8-1.4,8.7c0,3.9,0.8,7,2.4,9.2c1.5,2.1,3.9,3.2,7.4,3.2c2.6,0,5.1-0.7,7.3-2
			c2.2-1.4,4.2-3.2,5.7-5.3c1.6-2.2,2.9-4.8,3.8-7.6c0.9-2.9,1.4-5.8,1.4-8.7c0-3.9-0.8-7-2.5-9.2C264,83.2,261.6,82.2,258.1,82.2z"
			/>
		<path class="st0" d="M259.1,72.3c3,0,5.7,0.5,8.3,1.4c2.5,1,4.7,2.3,6.5,4.1c1.8,1.8,3.2,4,4.2,6.7s1.5,5.7,1.5,9.2
			c0,4.1-0.7,8.2-2,12.4c-1.3,4.1-3.3,7.8-5.9,11.1c-2.6,3.3-5.8,5.9-9.6,8c-3.8,2-8.2,3-13.2,3c-3,0-5.7-0.5-8.2-1.4
			c-2.5-1-4.7-2.3-6.5-4.1c-1.8-1.8-3.2-4-4.2-6.7s-1.5-5.7-1.5-9.2c0-4.1,0.7-8.2,2-12.4c1.3-4.1,3.3-7.8,5.9-11.1
			c2.6-3.3,5.8-5.9,9.6-8C249.8,73.3,254.2,72.3,259.1,72.3 M249.9,119.7c2.9,0,5.6-0.7,8-2.2s4.5-3.4,6.2-5.8s3-5.1,4-8.1
			s1.4-6.1,1.4-9.1c0-4.2-0.9-7.6-2.7-10.1c-1.8-2.5-4.7-3.8-8.7-3.8c-2.9,0-5.6,0.7-8,2.2s-4.4,3.4-6.1,5.8c-1.7,2.4-3,5.1-4,8.1
			s-1.4,6.1-1.4,9.1c0,4.2,0.9,7.6,2.7,10.1C243.1,118.5,246,119.7,249.9,119.7 M259.1,69.3c-5.4,0-10.3,1.1-14.5,3.4
			c-4.2,2.2-7.7,5.2-10.5,8.7s-5,7.6-6.4,12s-2.2,8.9-2.2,13.3c0,3.8,0.6,7.2,1.7,10.2c1.2,3.1,2.8,5.7,4.9,7.8
			c2.1,2.1,4.6,3.7,7.5,4.8c2.8,1.1,6,1.6,9.3,1.6c5.4,0,10.3-1.1,14.6-3.4c4.2-2.2,7.7-5.2,10.6-8.7c2.8-3.5,4.9-7.6,6.4-12
			c1.4-4.4,2.2-8.9,2.2-13.3c0-3.8-0.6-7.2-1.7-10.2c-1.1-3.1-2.8-5.7-4.9-7.8c-2.1-2.1-4.6-3.7-7.5-4.8
			C265.6,69.8,262.4,69.3,259.1,69.3L259.1,69.3z M249.9,116.7c-3,0-5-0.8-6.2-2.5c-1.4-2-2.1-4.8-2.1-8.4c0-2.8,0.4-5.5,1.3-8.2
			c0.9-2.7,2-5.1,3.6-7.2c1.5-2,3.2-3.7,5.3-4.9c1.9-1.2,4-1.8,6.4-1.8c3,0,5,0.8,6.3,2.5c1.4,2,2.2,4.8,2.2,8.4
			c0,2.8-0.4,5.5-1.3,8.2s-2,5.1-3.6,7.2c-1.5,2-3.2,3.7-5.3,4.9C254.4,116.2,252.3,116.7,249.9,116.7L249.9,116.7z"/>
	</g>
	<g>
		<path d="M303.5,128.5l5.2-22.1c0.3-1.1,0.5-2.3,0.8-3.4c0.2-1.1,0.4-2.2,0.4-3.1c0-1.4-0.3-2.6-1-3.5c-0.6-0.8-2-1.2-4.1-1.2
			c-1.7,0-3.2,0.1-4.5,0.4l-7.8,32.9H280l9.9-41.4l0.8-0.2c2.1-0.6,4.5-1.2,7.2-1.8c2.7-0.6,5.8-0.8,9-0.8c5.1,0,9,1.3,11.5,3.9
			s3.7,6.1,3.7,10.4c0,1.1-0.1,2.4-0.3,3.7c-0.2,1.2-0.4,2.5-0.7,3.8l-5.4,22.4H303.5z"/>
		<path class="st0" d="M307,85.8c4.7,0,8.2,1.2,10.4,3.5c2.2,2.3,3.3,5.4,3.3,9.3c0,1.1-0.1,2.2-0.3,3.4c-0.2,1.2-0.4,2.5-0.7,3.7
			l-5.1,21.2h-9.3l4.8-20.2c0.3-1.1,0.5-2.3,0.8-3.5s0.4-2.3,0.5-3.4c0.1-1.8-0.4-3.3-1.3-4.5s-2.7-1.8-5.3-1.8
			c-2.2,0-4.1,0.2-5.7,0.7l-7.7,32.7H282l9.3-38.7c2.1-0.6,4.4-1.2,7.1-1.7C301,86.1,303.9,85.8,307,85.8 M307,82.8
			c-3.3,0-6.5,0.3-9.3,0.9c-2.7,0.6-5.2,1.2-7.3,1.8l-1.7,0.5l-0.4,1.7l-9.3,38.7l-0.9,3.7h3.8h9.4h2.4l0.5-2.3l7.3-30.8
			c1-0.1,2-0.2,3.2-0.2c2,0,2.8,0.4,2.9,0.6c0.5,0.6,0.7,1.5,0.7,2.5c0,0.9-0.2,1.9-0.4,2.9c-0.3,1.2-0.5,2.3-0.8,3.4l-4.8,20.2
			l-0.9,3.7h3.8h9.3h2.4l0.6-2.3l5.1-21.2v-0.1v-0.1c0.3-1.3,0.5-2.6,0.7-3.9c0.2-1.4,0.3-2.7,0.3-3.9c0-4.7-1.4-8.5-4.2-11.4
			C316.8,84.3,312.6,82.8,307,82.8L307,82.8z"/>
	</g>
	<g>
		<path d="M350.1,129.7c-3.5,0-6.6-0.5-9.3-1.6c-2.8-1.1-5.2-2.7-7.1-4.7s-3.4-4.5-4.5-7.4c-1-2.8-1.5-6-1.5-9.5
			c0-4.5,0.8-8.9,2.2-13.1c1.5-4.2,3.7-8.1,6.5-11.4s6.4-6,10.4-8.1c4.1-2,8.8-3,13.9-3c3.4,0,6.4,0.4,8.9,1.1
			c2.5,0.8,4.7,1.7,6.6,2.8l1.2,0.7l-5,10.5l-1.4-0.8c-1.5-0.9-3.2-1.6-4.9-2.1c-1.7-0.5-3.7-0.8-6-0.8c-3,0-5.7,0.7-8,2
			c-2.4,1.3-4.5,3.1-6.1,5.3c-1.7,2.2-3,4.7-3.9,7.5s-1.4,5.7-1.4,8.7c0,4.4,0.9,7.6,2.7,9.6c1.8,2,4.4,2.9,8,2.9
			c2.9,0,5.4-0.3,7.4-1c2.1-0.7,3.9-1.4,5.4-2.1l1.8-0.9l1.6,11.2l-0.9,0.5c-1.8,0.9-4.1,1.8-6.8,2.5
			C357.3,129.3,354,129.7,350.1,129.7z"/>
		<path class="st0" d="M360.8,72.3c3.2,0,6.1,0.4,8.5,1.1s4.5,1.6,6.3,2.6l-3.7,7.8c-1.6-1-3.4-1.7-5.3-2.3c-1.9-0.5-4-0.8-6.4-0.8
			c-3.2,0-6.1,0.7-8.7,2.2c-2.6,1.4-4.8,3.3-6.6,5.7c-1.8,2.3-3.2,5-4.2,8s-1.4,6-1.4,9.1c0,4.8,1,8.3,3.1,10.6
			c2.1,2.3,5.1,3.4,9.1,3.4c3.1,0,5.7-0.3,7.9-1c2.2-0.7,4-1.4,5.6-2.1l1.2,8.2c-1.7,0.9-3.9,1.7-6.5,2.4c-2.6,0.7-5.8,1.1-9.6,1.1
			c-3.3,0-6.2-0.5-8.8-1.5c-2.6-1-4.8-2.5-6.6-4.4c-1.8-1.9-3.2-4.2-4.1-6.9c-1-2.7-1.4-5.7-1.4-9c0-4.3,0.7-8.5,2.2-12.6
			c1.4-4.1,3.5-7.7,6.3-10.9c2.7-3.2,6-5.8,10-7.7C351.5,73.2,355.9,72.3,360.8,72.3 M360.8,69.3c-5.4,0-10.3,1.1-14.6,3.2
			c-4.3,2.1-7.9,4.9-10.9,8.4s-5.2,7.5-6.8,11.9c-1.5,4.4-2.3,9-2.3,13.6c0,3.7,0.5,7.1,1.6,10c1.1,3.1,2.7,5.7,4.8,7.9
			c2.1,2.2,4.7,3.9,7.6,5.1c2.9,1.1,6.2,1.7,9.9,1.7c4,0,7.5-0.4,10.4-1.2c2.8-0.8,5.2-1.7,7.1-2.6l1.9-1l-0.3-2.1L368,116l-0.6-4
			l-3.7,1.7c-1.4,0.7-3.2,1.3-5.2,2c-1.9,0.6-4.2,0.9-7,0.9c-3.2,0-5.4-0.8-6.9-2.5c-1.6-1.7-2.3-4.6-2.3-8.6c0-2.8,0.4-5.5,1.3-8.2
			c0.8-2.6,2.1-5,3.7-7.1c1.6-2,3.5-3.7,5.7-4.9c2.1-1.2,4.5-1.8,7.3-1.8c2.1,0,3.9,0.2,5.5,0.7s3.2,1.1,4.6,2l2.8,1.7l1.4-3
			l3.7-7.8l1.2-2.5l-2.4-1.4c-2-1.1-4.3-2.1-6.9-2.9C367.5,69.7,364.3,69.3,360.8,69.3L360.8,69.3z"/>
	</g>
	<g>
		<path d="M393.7,128.5l5.3-22.1c0.2-1.1,0.5-2.4,0.8-3.6c0.2-1.1,0.4-2.2,0.4-3.2c0-1.4-0.3-2.5-1-3.4c-0.6-0.8-2-1.2-4-1.2
			c-0.9,0-1.9,0.1-2.8,0.2c-0.6,0.1-1.2,0.2-1.8,0.4l-7.8,32.7h-12.4l14.6-61l12.9-2.1l-4.7,19.7c0.3-0.1,0.7-0.1,1-0.2
			c1.3-0.2,2.6-0.4,3.9-0.4c2.4,0,4.6,0.4,6.4,1.1s3.4,1.7,4.6,3s2.1,2.9,2.6,4.7c0.5,1.7,0.8,3.6,0.8,5.6c0,2.3-0.3,4.8-1,7.4
			l-5.4,22.4H393.7z"/>
		<path class="st0" d="M396,67.1l-4.7,19.8c1-0.3,2.1-0.5,3.4-0.7c1.2-0.2,2.4-0.3,3.6-0.3c2.3,0,4.2,0.3,5.8,1c1.6,0.6,3,1.5,4,2.7
			c1.1,1.1,1.8,2.5,2.3,4.1s0.7,3.3,0.7,5.2c0,2.2-0.3,4.6-0.9,7L405,127h-9.3l4.9-20.2c0.3-1.2,0.5-2.4,0.8-3.6s0.4-2.4,0.4-3.5
			c0-1.7-0.5-3.1-1.4-4.3c-0.9-1.2-2.6-1.7-5.1-1.7c-1,0-2.1,0.1-3.1,0.3c-1,0.2-2,0.4-2.8,0.7l-7.7,32.4h-9.4l14-58.4L396,67.1
			 M399.9,63.4l-4.4,0.7l-9.7,1.5l-2,0.3l-0.5,2l-14,58.4l-0.9,3.7h3.8h9.4h2.4l0.5-2.3l7.3-30.7c0.3-0.1,0.5-0.1,0.8-0.2
			c0.9-0.1,1.7-0.2,2.6-0.2c1.8,0,2.6,0.4,2.8,0.6c0.5,0.6,0.7,1.4,0.7,2.4c0,0.9-0.1,1.8-0.3,2.9c-0.3,1.2-0.5,2.4-0.8,3.6
			l-4.8,20.2l-0.9,3.7h3.8h9.3h2.4l0.6-2.3l5.1-21.2c0.7-2.7,1-5.3,1-7.7c0-2.1-0.3-4.2-0.9-6c-0.6-2-1.6-3.8-3-5.3
			s-3.1-2.6-5.1-3.4s-4.3-1.2-6.9-1.2c-1,0-1.9,0.1-2.9,0.2l3.7-15.3L399.9,63.4L399.9,63.4z"/>
	</g>
	<g>
		<path d="M431,129.6c-2.6,0-4.9-0.4-6.8-1.3c-1.9-0.9-3.5-2.2-4.8-3.8c-1.2-1.6-2.1-3.4-2.6-5.5c-0.5-2-0.8-4.2-0.8-6.6
			c0-3.9,0.7-7.7,2.1-11.1s3.4-6.4,5.9-8.9s5.6-4.5,9-5.9c3.5-1.4,7.3-2.2,11.4-2.2c2.1,0,4.2,0.2,6.3,0.5c2.2,0.4,4.3,1,6.5,2
			l1.1,0.5l-5.8,24.3c-0.1,0.4-0.3,1.1-0.4,2.6c-0.1,1.2-0.2,2.4-0.2,3.4c0,1.4,0.1,2.8,0.4,4.1c0.2,1.3,0.6,2.7,1.2,4l0.7,1.8
			l-11.3,1.7l-0.5-1c-0.3-0.7-0.6-1.4-0.9-2.1c-1,0.7-2.1,1.3-3.3,1.9C435.9,129.1,433.6,129.6,431,129.6z M442.6,95.1
			c-2.1,0-4,0.5-5.7,1.3c-1.8,0.9-3.3,2.1-4.6,3.6c-1.3,1.5-2.3,3.3-3,5.3s-1.1,4.1-1.1,6.3c0,1.1,0.1,2.1,0.3,3
			c0.2,0.8,0.5,1.6,0.8,2.2c0.4,0.6,0.8,1,1.4,1.3s1.4,0.5,2.4,0.5c1.4,0,2.6-0.3,3.6-0.9c1-0.5,1.9-1.3,2.8-2.1
			c0.1-1.2,0.2-2.3,0.3-3.4c0.2-1.2,0.4-2.5,0.8-3.7L444,95C443.6,95.1,443.1,95.1,442.6,95.1z"/>
		<path class="st0" d="M444.3,85.9c2,0,4,0.2,6.1,0.5c2,0.3,4.1,1,6.1,1.9l-5.6,23.1c-0.2,0.6-0.3,1.5-0.5,2.8s-0.2,2.5-0.2,3.6
			c0,1.5,0.1,2.9,0.4,4.4c0.3,1.4,0.7,2.8,1.2,4.3l-8.3,1.2c-0.6-1.2-1.1-2.5-1.5-3.9c-1.3,1.1-2.9,2.1-4.7,3
			c-1.9,0.9-4,1.4-6.4,1.4s-4.5-0.4-6.2-1.2c-1.7-0.8-3.1-1.9-4.2-3.3s-1.9-3.1-2.4-5s-0.8-4-0.8-6.2c0-3.8,0.7-7.3,2-10.5
			s3.2-6,5.6-8.4s5.2-4.2,8.5-5.6C436.8,86.5,440.4,85.9,444.3,85.9 M433.2,120.2c1.6,0,3.1-0.3,4.4-1s2.4-1.6,3.5-2.8
			c0.1-1.3,0.2-2.6,0.3-3.8c0.2-1.2,0.4-2.4,0.7-3.6l3.8-15.1c-1-0.2-2.1-0.3-3.3-0.3c-2.3,0-4.5,0.5-6.4,1.5c-2,1-3.6,2.3-5.1,4
			c-1.4,1.7-2.5,3.6-3.3,5.8c-0.8,2.2-1.2,4.4-1.2,6.8c0,1.2,0.1,2.3,0.3,3.3c0.2,1,0.6,1.9,1,2.7c0.5,0.8,1.1,1.4,2,1.9
			C430.8,120,431.9,120.2,433.2,120.2 M444.3,82.9c-4.3,0-8.3,0.8-12,2.3c-3.6,1.5-6.8,3.6-9.5,6.2s-4.8,5.8-6.3,9.4
			s-2.2,7.5-2.2,11.6c0,2.5,0.3,4.8,0.9,7c0.6,2.3,1.6,4.3,2.9,6c1.4,1.8,3.2,3.2,5.3,4.2c2.1,1,4.6,1.5,7.5,1.5
			c2.8,0,5.4-0.6,7.7-1.6c0.7-0.3,1.3-0.7,2-1c0.1,0.2,0.2,0.4,0.3,0.6l1,1.9l2.1-0.3l8.3-1.2l3.7-0.6l-1.4-3.5
			c-0.5-1.3-0.9-2.5-1.1-3.7s-0.3-2.5-0.3-3.8c0-1,0.1-2.1,0.2-3.3c0.2-1.5,0.3-2.1,0.4-2.3l0,0l0,0l5.6-23.1l0.6-2.4l-2.3-1
			c-2.3-1-4.6-1.7-6.9-2.1C448.7,83,446.5,82.9,444.3,82.9L444.3,82.9z M433.2,117.2c-0.7,0-1.3-0.1-1.7-0.3
			c-0.4-0.2-0.7-0.5-0.9-0.8c-0.3-0.5-0.5-1-0.6-1.7c-0.2-0.8-0.3-1.8-0.3-2.7c0-2,0.3-4,1-5.8c0.6-1.8,1.6-3.4,2.7-4.8
			c1.2-1.4,2.5-2.5,4.1-3.3c1.4-0.7,2.9-1.1,4.6-1.2l-2.9,11.7c-0.3,1.3-0.6,2.6-0.8,3.8c-0.1,0.9-0.2,1.9-0.3,2.9
			c-0.6,0.6-1.3,1.1-2,1.5C435.3,117,434.3,117.2,433.2,117.2L433.2,117.2z"/>
	</g>
	<g>
		<path d="M456.8,128.5l10.4-43.4h12.4l-10.4,43.4H456.8z M475,82c-1.7,0-3.3-0.5-4.6-1.6c-1.4-1.1-2.1-2.8-2.1-4.9
			c0-2.3,0.8-4.3,2.4-5.8s3.5-2.3,5.5-2.3c1.7,0,3.3,0.5,4.6,1.6c1.4,1.1,2.1,2.8,2.1,4.9c0,2.3-0.8,4.3-2.5,5.8
			C478.9,81.3,477.1,82,475,82z"/>
		<path class="st0" d="M476.3,69c1.4,0,2.6,0.4,3.7,1.3c1.1,0.8,1.6,2.1,1.6,3.7c0,1.9-0.7,3.5-2,4.7s-2.9,1.8-4.6,1.8
			c-1.4,0-2.6-0.4-3.6-1.2c-1-0.8-1.5-2.1-1.5-3.7c0-1.9,0.7-3.5,2-4.7S474.6,69,476.3,69 M477.8,86.6L468,127h-9.3l9.7-40.4H477.8
			 M476.3,66c-2.5,0-4.7,0.9-6.6,2.7c-1.9,1.8-2.9,4.2-2.9,6.9c0,3.2,1.5,5.1,2.7,6c1.6,1.3,3.4,1.9,5.5,1.9c2.5,0,4.7-0.9,6.6-2.6
			c2-1.8,3-4.2,3-6.9c0-3.2-1.5-5.1-2.7-6.1C480.3,66.7,478.4,66,476.3,66L476.3,66z M481.6,83.6h-3.8h-9.3h-2.4l-0.6,2.3l-9.7,40.4
			l-0.9,3.7h3.8h9.3h2.4l0.6-2.3l9.7-40.4L481.6,83.6L481.6,83.6z"/>
	</g>
	<g>
		<path d="M501.2,128.5l5.2-22.1c0.3-1.1,0.5-2.3,0.8-3.4c0.2-1.1,0.4-2.2,0.4-3.1c0-1.4-0.3-2.6-1-3.5c-0.6-0.8-2-1.2-4.1-1.2
			c-1.7,0-3.2,0.1-4.5,0.4l-7.8,32.9h-12.5l9.9-41.4l0.8-0.2c2.1-0.6,4.5-1.2,7.2-1.8c2.7-0.6,5.8-0.8,9-0.8c5.1,0,9,1.3,11.5,3.9
			s3.7,6.1,3.7,10.4c0,1.1-0.1,2.4-0.3,3.7c-0.2,1.2-0.4,2.5-0.7,3.8l-5.4,22.4H501.2z"/>
		<path class="st0" d="M504.7,85.8c4.7,0,8.2,1.2,10.4,3.5s3.3,5.4,3.3,9.3c0,1.1-0.1,2.2-0.3,3.4c-0.2,1.2-0.4,2.5-0.7,3.7
			l-5.1,21.2H503l4.8-20.2c0.3-1.1,0.5-2.3,0.8-3.5s0.4-2.3,0.5-3.4c0.1-1.8-0.4-3.3-1.3-4.5s-2.7-1.8-5.3-1.8
			c-2.2,0-4.1,0.2-5.7,0.7l-7.7,32.7h-9.4l9.3-38.7c2.1-0.6,4.4-1.2,7.1-1.7C498.7,86.1,501.6,85.8,504.7,85.8 M504.7,82.8
			c-3.3,0-6.5,0.3-9.3,0.9c-2.7,0.6-5.2,1.2-7.3,1.8l-1.7,0.5l-0.4,1.7l-9.3,38.7l-0.9,3.7h3.8h9.4h2.4l0.5-2.3l7.3-30.8
			c1-0.1,2-0.2,3.2-0.2c2,0,2.8,0.4,2.9,0.6c0.5,0.6,0.7,1.5,0.7,2.5c0,0.9-0.2,1.9-0.4,2.9c-0.3,1.2-0.5,2.3-0.8,3.4l-4.8,20.2
			l-0.9,3.7h3.8h9.3h2.4l0.6-2.3l5.1-21.2v-0.1v-0.1c0.3-1.3,0.5-2.6,0.7-3.9c0.2-1.4,0.3-2.7,0.3-3.9c0-4.7-1.4-8.5-4.2-11.4
			C514.5,84.3,510.3,82.8,504.7,82.8L504.7,82.8z"/>
	</g>
	<g>
		<path d="M555.1,129.7c-2.2,0-4.2-0.2-6.1-0.5c-1.8-0.3-3.5-0.7-5-1.2s-2.7-1-3.8-1.6s-1.9-1.1-2.6-1.5l-1.1-0.8l5.8-10.2l1.4,1
			c0.5,0.3,1.1,0.7,1.9,1.1c0.8,0.4,1.7,0.8,2.7,1.2c1,0.4,2.1,0.7,3.3,0.9c1.2,0.2,2.5,0.4,3.8,0.4s2.6-0.1,3.9-0.4
			c1.2-0.2,2.3-0.6,3.3-1.1c0.9-0.5,1.6-1.2,2.1-2s0.8-1.9,0.8-3.2c0-0.9-0.2-1.7-0.6-2.3c-0.4-0.7-1-1.3-1.7-1.9
			c-0.8-0.6-1.7-1.2-2.8-1.8c-1.1-0.6-2.3-1.2-3.5-1.9c-1.4-0.7-2.7-1.5-4-2.4s-2.5-2-3.5-3.1c-1-1.2-1.9-2.6-2.5-4.2
			s-0.9-3.5-0.9-5.6c0-2.6,0.5-5,1.5-7.1c1-2.2,2.5-4.1,4.4-5.7s4.3-2.8,7.1-3.7c2.7-0.9,5.9-1.3,9.5-1.3c1.7,0,3.3,0.1,4.9,0.4
			c1.5,0.3,3,0.6,4.3,1c1.4,0.4,2.6,0.9,3.6,1.4c1.1,0.5,1.9,1,2.6,1.5l1.1,0.8L579.2,86l-1.4-1.1c-0.9-0.8-2.3-1.4-4-2
			c-1.8-0.6-3.8-0.9-5.9-0.9c-1.3,0-2.5,0.1-3.6,0.4c-1.1,0.2-2,0.6-2.9,1.1c-0.7,0.5-1.3,1-1.7,1.8c-0.4,0.7-0.6,1.6-0.6,2.6
			c0,0.9,0.1,1.7,0.4,2.3c0.3,0.6,0.7,1.1,1.3,1.6s1.3,1,2.2,1.4c0.9,0.5,2,1.1,3.1,1.7c1.6,0.9,3.1,1.8,4.6,2.7
			c1.5,0.9,2.9,2,4,3.3c1.2,1.3,2.2,2.7,2.9,4.3c0.7,1.7,1.1,3.6,1.1,5.9c0,3.1-0.6,5.9-1.8,8.2c-1.2,2.4-2.9,4.4-5,5.9
			s-4.6,2.7-7.4,3.4C561.5,129.3,558.4,129.7,555.1,129.7z"/>
		<path class="st0" d="M568.6,72.3c1.6,0,3.1,0.1,4.6,0.4s2.8,0.6,4.1,1s2.4,0.8,3.4,1.3s1.7,0.9,2.3,1.3l-4.2,7.4
			c-1.1-0.9-2.6-1.6-4.5-2.2s-4.1-0.9-6.4-0.9c-1.4,0-2.7,0.1-4,0.4s-2.4,0.7-3.3,1.3c-1,0.6-1.7,1.4-2.2,2.3
			c-0.5,1-0.8,2.1-0.8,3.4c0,1.2,0.2,2.2,0.6,2.9s0.9,1.5,1.6,2c0.7,0.6,1.5,1.1,2.4,1.6s1.9,1,3,1.7c1.6,0.9,3.1,1.8,4.5,2.6
			c1.4,0.9,2.7,1.9,3.7,3c1.1,1.1,1.9,2.4,2.6,3.9c0.6,1.5,1,3.2,1,5.3c0,2.9-0.5,5.4-1.6,7.6s-2.6,4-4.6,5.4s-4.3,2.5-6.9,3.2
			c-2.7,0.7-5.6,1.1-8.8,1.1c-2.1,0-4.1-0.2-5.8-0.5c-1.8-0.3-3.4-0.7-4.7-1.2c-1.4-0.5-2.6-1-3.6-1.5s-1.8-1-2.4-1.4l4.3-7.6
			c0.5,0.4,1.2,0.8,2,1.2s1.8,0.9,2.9,1.3c1.1,0.4,2.3,0.7,3.6,1s2.6,0.4,4.1,0.4c1.4,0,2.8-0.1,4.1-0.4c1.4-0.3,2.6-0.7,3.7-1.3
			c1.1-0.6,2-1.5,2.7-2.5c0.7-1.1,1-2.4,1-4c0-1.2-0.3-2.2-0.8-3s-1.2-1.6-2.1-2.3c-0.9-0.7-1.9-1.3-3-1.9s-2.3-1.2-3.5-1.9
			c-1.3-0.7-2.6-1.4-3.8-2.3c-1.2-0.8-2.3-1.8-3.2-2.9s-1.7-2.3-2.2-3.8c-0.5-1.4-0.8-3.1-0.8-5.1c0-2.4,0.4-4.5,1.4-6.5
			c0.9-2,2.2-3.7,4-5.1s4-2.6,6.6-3.4C562.1,72.7,565.2,72.3,568.6,72.3 M568.6,69.3c-3.7,0-7.1,0.5-10,1.4s-5.5,2.3-7.5,3.9
			c-2.1,1.7-3.8,3.8-4.9,6.2c-1.1,2.4-1.6,5-1.6,7.8c0,2.3,0.3,4.4,1,6.1c0.7,1.8,1.6,3.3,2.7,4.7c1.1,1.3,2.3,2.4,3.8,3.4
			c1.3,0.9,2.7,1.8,4.2,2.5c1.2,0.7,2.4,1.3,3.5,1.9c1,0.5,1.8,1.1,2.6,1.6c0.6,0.4,1,0.9,1.3,1.4c0.2,0.4,0.3,0.9,0.3,1.5
			c0,1-0.2,1.8-0.5,2.4c-0.4,0.6-0.9,1.1-1.6,1.5c-0.8,0.5-1.8,0.8-2.8,1c-1.2,0.2-2.4,0.3-3.6,0.3c-1.2,0-2.4-0.1-3.5-0.3
			c-1.1-0.2-2.2-0.5-3.1-0.8c-0.9-0.3-1.8-0.7-2.5-1.1s-1.3-0.8-1.8-1.1l-2.7-1.9l-1.6,2.9l-4.3,7.6l-1.3,2.3l2.2,1.6
			c0.7,0.5,1.6,1,2.8,1.6c1.1,0.6,2.5,1.1,4,1.6s3.3,0.9,5.2,1.3c1.9,0.3,4.1,0.5,6.3,0.5c3.4,0,6.7-0.4,9.6-1.2
			c3-0.8,5.7-2,7.9-3.7c2.3-1.7,4.2-3.9,5.5-6.5s1.9-5.6,1.9-8.9c0-2.5-0.4-4.6-1.2-6.5c-0.8-1.8-1.8-3.4-3.2-4.8
			c-1.3-1.3-2.7-2.5-4.3-3.5c-1.4-0.9-3-1.8-4.6-2.7c-1.1-0.6-2.1-1.2-3.1-1.7c-0.7-0.4-1.4-0.8-1.9-1.3c-0.4-0.3-0.7-0.7-0.9-1.1
			c-0.1-0.2-0.3-0.7-0.3-1.6c0-0.8,0.1-1.4,0.4-1.9c0.3-0.5,0.7-0.9,1.2-1.2c0.7-0.4,1.5-0.7,2.4-0.9c1-0.2,2.2-0.4,3.3-0.4
			c2,0,3.8,0.3,5.5,0.8c1.6,0.5,2.8,1.1,3.5,1.7l2.7,2.2l1.8-3.1l4.2-7.4l1.3-2.3l-2.2-1.6c-0.7-0.5-1.6-1-2.8-1.6
			c-1.1-0.5-2.4-1-3.8-1.4c-1.4-0.4-2.9-0.8-4.5-1C572.1,69.4,570.4,69.3,568.6,69.3L568.6,69.3z"/>
	</g>
	<g>
		<path d="M600.4,129.6c-3,0-5.7-0.5-7.9-1.4c-2.2-0.9-4.2-2.2-5.7-3.8c-1.5-1.6-2.6-3.5-3.3-5.7c-0.7-2.1-1-4.4-1-6.9
			c0-3.7,0.6-7.2,1.7-10.5c1.2-3.3,2.9-6.3,5-8.8c2.2-2.5,4.9-4.6,8.1-6.1c3.2-1.5,6.8-2.2,10.8-2.2c2.1,0,4,0.2,5.8,0.5
			c1.8,0.4,3.5,0.9,5.1,1.6l1.4,0.6l-4.5,10.2l-1.4-0.6c-0.9-0.4-1.8-0.7-2.9-1c-1-0.3-2.3-0.4-3.8-0.4c-2,0-3.7,0.4-5.3,1.2
			c-1.6,0.8-2.9,1.9-4,3.3s-2,3.1-2.6,5c-0.6,2-0.9,4.1-0.9,6.3c0,1.2,0.1,2.3,0.4,3.3c0.2,0.9,0.6,1.7,1.1,2.4
			c0.5,0.6,1.1,1.1,2,1.5s2.2,0.6,3.7,0.6c1.6,0,3.2-0.2,4.6-0.6c1.5-0.4,2.7-0.9,3.5-1.3l2-1l1.1,10.9l-1,0.5
			c-1.3,0.6-2.9,1.2-5,1.8C605.4,129.3,603,129.6,600.4,129.6z"/>
		<path class="st0" d="M608.1,85.6c2,0,3.8,0.2,5.5,0.5s3.3,0.8,4.7,1.5l-3.3,7.5c-0.9-0.4-2-0.8-3.1-1.1c-1.1-0.3-2.5-0.5-4.2-0.5
			c-2.2,0-4.2,0.5-6,1.4s-3.3,2.1-4.5,3.7c-1.2,1.5-2.2,3.4-2.9,5.5s-1,4.3-1,6.7c0,1.3,0.1,2.6,0.4,3.7c0.3,1.1,0.7,2.1,1.4,2.9
			c0.6,0.8,1.5,1.5,2.7,2c1.1,0.5,2.5,0.7,4.2,0.7s3.4-0.2,5.1-0.7c1.6-0.5,2.9-0.9,3.7-1.4l0.8,7.6c-1.2,0.6-2.8,1.1-4.7,1.7
			c-2,0.5-4.2,0.8-6.6,0.8c-2.8,0-5.3-0.4-7.3-1.3c-2.1-0.8-3.8-2-5.1-3.5c-1.4-1.5-2.4-3.2-3-5.2s-1-4.1-1-6.4
			c0-3.5,0.6-6.8,1.7-10c1.1-3.2,2.7-5.9,4.7-8.3c2.1-2.4,4.6-4.3,7.6-5.7C600.9,86.3,604.3,85.6,608.1,85.6 M608.1,82.6
			c-4.2,0-8.1,0.8-11.5,2.4s-6.2,3.7-8.6,6.4c-2.3,2.7-4.1,5.8-5.3,9.3s-1.8,7.2-1.8,11c0,2.6,0.4,5.1,1.1,7.4
			c0.8,2.4,2,4.5,3.7,6.3s3.7,3.2,6.2,4.2c2.4,1,5.3,1.5,8.5,1.5c2.7,0,5.2-0.3,7.4-0.9c2.2-0.6,3.9-1.2,5.2-1.8l1.9-0.9l-0.2-2.1
			l-0.8-7.6l-0.4-4.4l-3.9,2.1c-0.5,0.3-1.4,0.7-3.2,1.2c-1.3,0.4-2.8,0.6-4.2,0.6c-1.3,0-2.3-0.2-3.1-0.5c-0.6-0.3-1.1-0.6-1.4-1
			c-0.4-0.5-0.7-1.1-0.9-1.9c-0.2-0.9-0.3-1.8-0.3-2.9c0-2,0.3-4,0.9-5.8c0.6-1.7,1.3-3.3,2.3-4.5s2.1-2.2,3.5-2.9
			c1.4-0.7,2.9-1,4.6-1c1.4,0,2.5,0.1,3.4,0.4c1,0.3,1.9,0.6,2.7,0.9l2.7,1.2l1.2-2.7l3.3-7.5l1.2-2.7l-2.7-1.2
			c-1.7-0.8-3.5-1.3-5.4-1.7C612.4,82.8,610.3,82.6,608.1,82.6L608.1,82.6z"/>
	</g>
	<g>
		<path d="M632.1,129.6c-2.6,0-4.9-0.4-6.8-1.3c-1.9-0.9-3.5-2.2-4.8-3.8c-1.2-1.6-2.1-3.4-2.6-5.5c-0.5-2-0.8-4.2-0.8-6.6
			c0-3.9,0.7-7.7,2.1-11.1c1.4-3.4,3.4-6.4,5.9-8.9s5.6-4.5,9-5.9c3.5-1.4,7.3-2.2,11.4-2.2c2.1,0,4.2,0.2,6.3,0.5
			c2.2,0.4,4.3,1,6.5,2l1.1,0.5l-5.8,24.3c-0.1,0.4-0.3,1.1-0.4,2.6c-0.1,1.2-0.2,2.4-0.2,3.4c0,1.4,0.1,2.8,0.4,4.1
			c0.2,1.3,0.6,2.7,1.2,4l0.7,1.8l-11.3,1.7l-0.5-1c-0.3-0.7-0.6-1.4-0.9-2.1c-1,0.7-2.1,1.3-3.3,1.9
			C637.1,129.1,634.7,129.6,632.1,129.6z M643.7,95.1c-2.1,0-4,0.5-5.7,1.3c-1.8,0.9-3.3,2.1-4.6,3.6s-2.3,3.3-3,5.3
			s-1.1,4.1-1.1,6.3c0,1.1,0.1,2.1,0.3,3c0.2,0.8,0.5,1.6,0.8,2.2c0.4,0.6,0.8,1,1.4,1.3c0.6,0.3,1.4,0.5,2.4,0.5
			c1.4,0,2.6-0.3,3.6-0.9c1-0.5,1.9-1.3,2.8-2.1c0.1-1.2,0.2-2.3,0.3-3.4c0.2-1.2,0.4-2.5,0.8-3.7l3.4-13.5
			C644.7,95.1,644.3,95.1,643.7,95.1z"/>
		<path class="st0" d="M645.5,85.9c2,0,4,0.2,6.1,0.5c2,0.3,4.1,1,6.1,1.9l-5.6,23.1c-0.2,0.6-0.3,1.5-0.5,2.8s-0.2,2.5-0.2,3.6
			c0,1.5,0.1,2.9,0.4,4.4c0.3,1.4,0.7,2.8,1.2,4.3l-8.3,1.2c-0.6-1.2-1.1-2.5-1.5-3.9c-1.3,1.1-2.9,2.1-4.7,3
			c-1.9,0.9-4,1.4-6.4,1.4s-4.5-0.4-6.2-1.2c-1.7-0.8-3.1-1.9-4.2-3.3c-1.1-1.4-1.9-3.1-2.4-5s-0.8-4-0.8-6.2c0-3.8,0.7-7.3,2-10.5
			s3.2-6,5.6-8.4c2.4-2.4,5.2-4.2,8.5-5.6C638,86.5,641.6,85.9,645.5,85.9 M634.3,120.2c1.6,0,3.1-0.3,4.4-1
			c1.3-0.7,2.4-1.6,3.5-2.8c0-1.3,0.2-2.6,0.3-3.8c0.2-1.2,0.4-2.4,0.7-3.6l3.8-15.1c-1-0.2-2.1-0.3-3.3-0.3c-2.3,0-4.5,0.5-6.4,1.5
			c-2,1-3.6,2.3-5.1,4c-1.4,1.7-2.5,3.6-3.3,5.8c-0.8,2.2-1.2,4.4-1.2,6.8c0,1.2,0.1,2.3,0.3,3.3s0.6,1.9,1,2.7s1.1,1.4,2,1.9
			C632,120,633,120.2,634.3,120.2 M645.5,82.9c-4.3,0-8.3,0.8-12,2.3c-3.6,1.5-6.8,3.6-9.5,6.2s-4.8,5.8-6.3,9.4s-2.2,7.5-2.2,11.6
			c0,2.5,0.3,4.8,0.9,7c0.6,2.3,1.6,4.3,2.9,6c1.4,1.8,3.2,3.2,5.3,4.2s4.6,1.5,7.5,1.5c2.8,0,5.4-0.6,7.7-1.6c0.7-0.3,1.3-0.7,2-1
			c0.1,0.2,0.2,0.4,0.3,0.6l1,1.9l2.2-0.3l8.3-1.2l3.7-0.6l-1.4-3.5c-0.5-1.3-0.9-2.5-1.1-3.7c-0.2-1.2-0.3-2.5-0.3-3.8
			c0-1,0.1-2.1,0.2-3.3c0.2-1.5,0.3-2.1,0.4-2.3l0,0l0,0l5.6-23.1l0.6-2.4l-2.3-1c-2.3-1-4.6-1.7-6.9-2.1
			C649.9,83,647.7,82.9,645.5,82.9L645.5,82.9z M634.3,117.2c-1,0-1.5-0.2-1.7-0.3c-0.4-0.2-0.7-0.5-0.9-0.8c-0.3-0.5-0.5-1-0.6-1.7
			c-0.2-0.8-0.3-1.7-0.3-2.7c0-2,0.3-4,1-5.8c0.6-1.8,1.6-3.4,2.7-4.8c1.2-1.4,2.5-2.5,4.1-3.3c1.4-0.7,2.9-1.1,4.6-1.2l-2.9,11.7
			c-0.3,1.3-0.6,2.6-0.8,3.8c-0.1,0.9-0.2,1.9-0.3,2.9c-0.6,0.6-1.3,1.1-2,1.5C636.4,117,635.5,117.2,634.3,117.2L634.3,117.2z"/>
	</g>
	<g>
		<path d="M675.3,129.3c-2.6-0.1-4.8-0.4-6.6-1c-1.9-0.6-3.4-1.5-4.6-2.7c-1.2-1.1-2-2.5-2.5-4.1c-0.5-1.5-0.7-3.1-0.7-4.9
			c0-1.7,0.2-3.6,0.6-5.5c0.4-1.8,0.8-3.7,1.3-5.5l9.2-38.3l12.9-2.1l-0.5,2.2c-1.6,6.7-3.2,13.4-4.8,20.1s-3.2,13.4-4.9,20.1
			c-0.2,1.1-0.5,2.2-0.8,3.2c-0.3,0.9-0.4,1.8-0.4,2.7c0,0.9,0,1.6,0,2.4c0,0.4,0.1,0.8,0.3,1.1c0.2,0.3,0.6,0.6,1.1,0.9
			c0.6,0.3,1.4,0.5,2.5,0.6l1.8,0.1l-2.8,10.6L675.3,129.3z"/>
		<path class="st0" d="M682.9,67.1c-1.6,6.7-3.2,13.4-4.8,20.1s-3.2,13.4-4.9,20.1c-0.2,1.1-0.5,2.1-0.8,3.2s-0.4,2.1-0.4,3.1
			c0,0.9,0,1.7,0,2.4c0,0.7,0.2,1.4,0.6,1.9c0.4,0.5,1,1,1.7,1.4c0.8,0.4,1.8,0.6,3,0.7l-2,7.7c-2.4-0.1-4.5-0.4-6.1-0.9
			c-1.7-0.6-3-1.3-4-2.3s-1.7-2.1-2.2-3.5c-0.4-1.3-0.7-2.8-0.7-4.4s0.2-3.4,0.6-5.2c0.4-1.8,0.8-3.6,1.3-5.4l9-37.4L682.9,67.1
			 M686.9,63.4l-4.4,0.7l-9.7,1.5l-2,0.3l-0.5,1.9l-9,37.4c-0.5,1.8-0.9,3.7-1.3,5.5c-0.4,2-0.6,4-0.6,5.8c0,1.9,0.3,3.7,0.8,5.3
			c0.6,1.8,1.6,3.4,2.9,4.7c1.3,1.3,3.1,2.3,5.1,3s4.3,1,7,1.1l2.4,0.1l0.6-2.3l2-7.7l0.9-3.4l-3.6-0.3c-1.1-0.1-1.7-0.3-2-0.4
			c-0.4-0.2-0.5-0.4-0.6-0.4c0-0.1-0.1-0.2-0.1-0.3c0-0.7,0-1.5,0-2.3s0.1-1.5,0.3-2.3c0.3-1.1,0.6-2.2,0.8-3.3
			c1.7-6.8,3.3-13.5,4.9-20.1c1.6-6.7,3.2-13.4,4.8-20.1L686.9,63.4L686.9,63.4z"/>
	</g>
	<g>
		<path d="M681,128.5l10.4-43.4h12.4l-10.4,43.4H681z M699.1,82c-1.7,0-3.3-0.5-4.6-1.6c-1.4-1.1-2.1-2.8-2.1-4.9
			c0-2.3,0.8-4.3,2.4-5.8c1.6-1.5,3.5-2.3,5.5-2.3c1.7,0,3.3,0.5,4.6,1.6c1.4,1.1,2.1,2.8,2.1,4.9c0,2.3-0.8,4.3-2.5,5.8
			C703.1,81.3,701.2,82,699.1,82z"/>
		<path class="st0" d="M700.5,69c1.4,0,2.6,0.4,3.7,1.3c1.1,0.8,1.6,2.1,1.6,3.7c0,1.9-0.7,3.5-2,4.7s-2.9,1.8-4.6,1.8
			c-1.4,0-2.6-0.4-3.6-1.2c-1-0.8-1.5-2.1-1.5-3.7c0-1.9,0.7-3.5,2-4.7C697.3,69.7,698.8,69,700.5,69 M701.9,86.6l-9.7,40.4h-9.3
			l9.7-40.4H701.9 M700.5,66c-2.5,0-4.7,0.9-6.6,2.7c-1.9,1.8-2.9,4.2-2.9,6.9c0,3.2,1.5,5.1,2.7,6c1.6,1.3,3.4,1.9,5.5,1.9
			c2.5,0,4.7-0.9,6.6-2.6c2-1.8,3-4.2,3-6.9c0-3.2-1.5-5.1-2.7-6.1C704.4,66.7,702.5,66,700.5,66L700.5,66z M705.7,83.6h-3.8h-9.3
			h-2.4l-0.6,2.3l-9.7,40.4L679,130h3.8h9.3h2.4l0.6-2.3l9.7-40.4L705.7,83.6L705.7,83.6z"/>
	</g>
	<g>
		<path d="M725.4,128.5l5.2-22.1c0.3-1.1,0.5-2.3,0.8-3.4c0.2-1.1,0.4-2.2,0.4-3.1c0-1.4-0.3-2.6-1-3.5c-0.6-0.8-2-1.2-4.1-1.2
			c-1.7,0-3.2,0.1-4.5,0.4l-7.8,32.9H702l9.9-41.4l0.8-0.2c2.1-0.6,4.5-1.2,7.2-1.8c2.7-0.6,5.8-0.8,9-0.8c5.1,0,9,1.3,11.5,3.9
			s3.7,6.1,3.7,10.4c0,1.1-0.1,2.4-0.3,3.7c-0.2,1.2-0.4,2.5-0.7,3.8l-5.4,22.4H725.4z"/>
		<path class="st0" d="M728.9,85.8c4.7,0,8.2,1.2,10.4,3.5s3.3,5.4,3.3,9.3c0,1.1-0.1,2.2-0.3,3.4c-0.2,1.2-0.4,2.5-0.7,3.7
			l-5.1,21.2h-9.3l4.8-20.2c0.3-1.1,0.5-2.3,0.8-3.5s0.4-2.3,0.5-3.4c0.1-1.8-0.4-3.3-1.3-4.5c-0.9-1.2-2.7-1.8-5.3-1.8
			c-2.2,0-4.1,0.2-5.7,0.7l-7.7,32.7h-9.4l9.3-38.7c2.1-0.6,4.4-1.2,7.1-1.7C722.8,86.1,725.7,85.8,728.9,85.8 M728.9,82.8
			c-3.3,0-6.4,0.3-9.3,0.9c-2.7,0.6-5.2,1.2-7.3,1.8l-1.7,0.5l-0.4,1.7l-9.3,38.7l-0.9,3.7h3.8h9.4h2.4l0.5-2.3l7.3-30.8
			c1-0.1,2-0.2,3.2-0.2c2,0,2.8,0.4,2.9,0.6c0.5,0.6,0.7,1.5,0.7,2.5c0,0.9-0.2,1.9-0.4,2.9c-0.3,1.2-0.5,2.3-0.8,3.4l-4.8,20.2
			l-0.9,3.7h3.8h9.3h2.4l0.6-2.3l5.1-21.2v-0.1v-0.1c0.3-1.3,0.5-2.6,0.7-3.9c0.2-1.4,0.3-2.7,0.3-3.9c0-4.7-1.4-8.5-4.2-11.4
			C738.7,84.3,734.4,82.8,728.9,82.8L728.9,82.8z"/>
	</g>
	<g>
		<path d="M757.3,143c-2.8,0-5.5-0.3-7.8-0.9c-2.3-0.6-4.3-1.4-6.1-2.3l-1.2-0.7l4.6-10.4l1.5,0.9c1.3,0.8,2.8,1.4,4.5,1.9
			s3.7,0.7,5.9,0.7c3.4,0,6-0.8,7.6-2.2c1.3-1.2,2.3-2.7,2.9-4.6c-0.3,0.1-0.7,0.2-1.1,0.3c-1.6,0.5-3.3,0.7-5,0.7
			c-5,0-8.7-1.4-11.2-4.2c-2.4-2.7-3.7-6.3-3.7-10.8c0-3.9,0.7-7.5,2-10.8c1.4-3.3,3.3-6.2,5.8-8.6s5.5-4.3,9-5.7
			c3.5-1.3,7.3-2,11.5-2c2,0,4.3,0.2,6.6,0.7c2.4,0.5,4.6,1.2,6.5,2.3l1,0.5l-8.4,35.4c-0.7,3.1-1.7,5.9-2.8,8.4
			c-1.2,2.5-2.8,4.7-4.7,6.4c-2,1.7-4.4,3-7.2,3.9C764.6,142.6,761.2,143,757.3,143z M774.9,95.1c-2.1,0-4.1,0.4-5.8,1.2
			c-1.7,0.8-3.3,1.9-4.5,3.2c-1.3,1.3-2.2,2.9-2.9,4.7c-0.7,1.8-1.1,3.8-1.1,5.8c0,1.9,0.4,3.4,1.2,4.4c0.7,0.9,1.9,1.3,3.7,1.3
			c1.2,0,2.5-0.2,3.8-0.7c1.1-0.4,2-0.9,2.8-1.4l4.5-18.5C776,95.1,775.4,95.1,774.9,95.1z"/>
		<path class="st0" d="M776.6,85.7c2,0,4.1,0.2,6.3,0.7c2.2,0.4,4.3,1.1,6.1,2.1l-8.2,34.3c-0.7,3-1.6,5.7-2.7,8.1
			c-1.1,2.3-2.6,4.3-4.4,5.9c-1.8,1.6-4,2.8-6.7,3.6s-5.9,1.2-9.6,1.2c-2.7,0-5.2-0.3-7.4-0.9c-2.2-0.6-4.1-1.3-5.8-2.2l3.3-7.6
			c1.4,0.8,3,1.5,4.8,2s3.9,0.8,6.3,0.8c3.8,0,6.7-0.9,8.6-2.6c1.9-1.8,3.2-4.1,3.9-7.2l0.2-1.1c-1,0.5-2.3,1-3.7,1.4
			s-3,0.7-4.6,0.7c-4.5,0-7.9-1.2-10.1-3.7c-2.2-2.4-3.3-5.7-3.3-9.8c0-3.7,0.6-7.1,1.9-10.3c1.3-3.1,3.1-5.9,5.4-8.1
			c2.3-2.3,5.2-4.1,8.5-5.4C768.9,86.4,772.6,85.7,776.6,85.7 M765.4,117.3c1.4,0,2.8-0.3,4.3-0.8s2.7-1.2,3.7-1.9l5-20.6
			c-1.2-0.3-2.3-0.4-3.5-0.4c-2.4,0-4.5,0.4-6.4,1.3s-3.6,2.1-5,3.6s-2.5,3.2-3.2,5.2c-0.8,2-1.2,4.1-1.2,6.4s0.5,4,1.5,5.3
			C761.5,116.6,763.1,117.3,765.4,117.3 M776.6,82.7c-4.4,0-8.4,0.7-12.1,2.1c-3.7,1.4-6.8,3.5-9.5,6c-2.6,2.6-4.7,5.6-6.1,9.2
			c-1.4,3.5-2.2,7.3-2.2,11.4c0,4.8,1.4,8.8,4,11.8c2.8,3.1,6.9,4.7,12.3,4.7c1.1,0,2.2-0.1,3.2-0.3c-0.3,0.4-0.7,0.9-1.1,1.2
			c-1.4,1.2-3.6,1.8-6.6,1.8c-2.1,0-3.9-0.2-5.5-0.7c-1.6-0.4-2.9-1-4.1-1.7l-2.9-1.7l-1.4,3.1l-3.3,7.6l-1.1,2.5l2.5,1.3
			c1.8,1,4,1.8,6.4,2.4c2.4,0.7,5.2,1,8.2,1c4,0,7.6-0.5,10.5-1.4c3-0.9,5.6-2.4,7.8-4.2c2.1-1.8,3.8-4.1,5.1-6.8
			c1.2-2.5,2.2-5.4,2.9-8.7l8.2-34.3l0.5-2.2l-2-1.1c-2.1-1.1-4.4-1.9-6.9-2.4C781,82.9,778.7,82.7,776.6,82.7L776.6,82.7z
			 M765.4,114.3c-0.9,0-2.1-0.1-2.5-0.7c-0.6-0.7-0.9-1.9-0.9-3.5c0-1.9,0.3-3.7,1-5.3c0.6-1.6,1.5-3,2.6-4.3c1.1-1.2,2.5-2.2,4-2.9
			c1.5-0.7,3.1-1,5-1l-3.9,16.2c-0.6,0.3-1.2,0.6-2,0.9C767.6,114.1,766.5,114.3,765.4,114.3L765.4,114.3z"/>
	</g>
	<g>
		<path d="M834.1,129.7c-3.5,0-6.6-0.5-9.3-1.6c-2.8-1.1-5.2-2.7-7.1-4.7c-1.9-2-3.4-4.5-4.5-7.4c-1-2.8-1.5-6-1.5-9.5
			c0-4.5,0.8-8.9,2.2-13.1c1.5-4.2,3.7-8.1,6.5-11.4s6.4-6,10.4-8.1c4.1-2,8.8-3,13.9-3c3.4,0,6.4,0.4,8.9,1.1
			c2.5,0.8,4.7,1.7,6.6,2.8l1.2,0.7l-5,10.5l-1.4-0.8c-1.5-0.9-3.2-1.6-4.9-2.1s-3.7-0.8-6-0.8c-3,0-5.7,0.7-8,2
			c-2.4,1.3-4.5,3.1-6.1,5.3c-1.7,2.2-3,4.7-3.9,7.5s-1.4,5.7-1.4,8.7c0,4.4,0.9,7.6,2.7,9.6s4.4,2.9,8,2.9c2.9,0,5.4-0.3,7.4-1
			c2.1-0.7,3.9-1.4,5.4-2.1l1.8-0.9l1.6,11.2l-0.9,0.5c-1.8,0.9-4.1,1.8-6.8,2.5C841.4,129.3,838,129.7,834.1,129.7z"/>
		<path class="st0" d="M844.9,72.3c3.2,0,6.1,0.4,8.5,1.1s4.5,1.6,6.3,2.6l-3.7,7.8c-1.6-1-3.4-1.7-5.3-2.3c-1.9-0.5-4-0.8-6.4-0.8
			c-3.2,0-6.2,0.7-8.7,2.2c-2.6,1.4-4.8,3.3-6.6,5.7c-1.8,2.3-3.2,5-4.2,8s-1.4,6-1.4,9.1c0,4.8,1,8.3,3.1,10.6
			c2.1,2.3,5.1,3.4,9.1,3.4c3.1,0,5.7-0.3,7.9-1s4-1.4,5.6-2.1l1.2,8.2c-1.7,0.9-3.9,1.7-6.5,2.4c-2.6,0.7-5.8,1.1-9.6,1.1
			c-3.3,0-6.2-0.5-8.8-1.5s-4.8-2.5-6.6-4.4s-3.2-4.2-4.1-6.9c-1-2.7-1.4-5.7-1.4-9c0-4.3,0.7-8.5,2.2-12.6
			c1.4-4.1,3.5-7.7,6.3-10.9c2.7-3.2,6-5.8,10-7.7C835.5,73.2,839.9,72.3,844.9,72.3 M844.9,69.3c-5.4,0-10.3,1.1-14.6,3.2
			s-7.9,4.9-10.9,8.4s-5.2,7.5-6.8,11.9c-1.5,4.4-2.3,9-2.3,13.6c0,3.7,0.5,7.1,1.6,10c1.1,3.1,2.7,5.7,4.8,7.9
			c2.1,2.2,4.7,3.9,7.7,5.1c2.9,1.1,6.2,1.7,9.9,1.7c4,0,7.5-0.4,10.4-1.2c2.8-0.8,5.2-1.7,7.1-2.6l1.9-1l-0.3-2.1l-1.2-8.2l-0.6-4
			l-3.7,1.7c-1.4,0.7-3.2,1.3-5.2,2c-1.9,0.6-4.2,0.9-7,0.9c-3.2,0-5.4-0.8-6.9-2.5c-1.6-1.7-2.3-4.6-2.3-8.6c0-2.8,0.4-5.5,1.3-8.2
			c0.8-2.6,2.1-5,3.7-7.1c1.6-2,3.5-3.7,5.7-4.9c2.1-1.2,4.5-1.8,7.3-1.8c2.1,0,3.9,0.2,5.5,0.7s3.2,1.1,4.6,2l2.8,1.7l1.4-3
			l3.7-7.8l1.2-2.5l-2.4-1.4c-2-1.1-4.3-2.1-6.9-2.9C851.5,69.7,848.4,69.3,844.9,69.3L844.9,69.3z"/>
	</g>
	<g>
		<path d="M870.8,129.6c-5.2,0-9.3-1.6-12.1-4.7c-2.8-3.1-4.2-7.2-4.2-12.2c0-3.1,0.5-6.4,1.4-9.7c1-3.3,2.5-6.4,4.5-9.2
			c2-2.8,4.6-5.1,7.6-6.9c3.1-1.8,6.8-2.8,11-2.8c5.2,0,9.3,1.6,12.1,4.7s4.2,7.2,4.2,12.2c0,3.2-0.5,6.4-1.4,9.7
			c-0.9,3.3-2.4,6.4-4.4,9.2c-2,2.8-4.6,5.1-7.6,6.9C878.7,128.7,875,129.6,870.8,129.6z M877.9,95c-1.7,0-3.2,0.5-4.5,1.4
			c-1.4,1-2.6,2.4-3.5,4c-1,1.7-1.7,3.5-2.3,5.5c-0.5,2-0.8,4-0.8,5.8c0,2.3,0.4,4,1.2,5.3c0.7,1.1,2,1.6,3.9,1.6
			c1.7,0,3.2-0.5,4.5-1.4c1.4-1,2.6-2.4,3.5-4c1-1.6,1.7-3.5,2.3-5.5c0.5-2,0.8-4,0.8-5.8c0-2.3-0.4-4.1-1.2-5.3
			C881.1,95.5,879.9,95,877.9,95z"/>
		<path class="st0" d="M879.1,85.6c4.8,0,8.4,1.4,11,4.2c2.5,2.8,3.8,6.5,3.8,11.2c0,3-0.5,6.1-1.4,9.3c-0.9,3.2-2.3,6.1-4.2,8.7
			s-4.3,4.8-7.2,6.5s-6.3,2.5-10.3,2.5c-4.8,0-8.4-1.4-11-4.2c-2.5-2.8-3.8-6.6-3.8-11.2c0-3,0.5-6.1,1.4-9.3
			c0.9-3.2,2.3-6.1,4.2-8.7s4.3-4.8,7.2-6.5C871.8,86.5,875.2,85.6,879.1,85.6 M872,120.1c2,0,3.8-0.6,5.4-1.7
			c1.6-1.2,2.9-2.6,3.9-4.4c1.1-1.8,1.9-3.7,2.4-5.9c0.6-2.2,0.8-4.2,0.8-6.2c0-2.6-0.5-4.6-1.5-6.1s-2.7-2.3-5.2-2.3
			c-2,0-3.8,0.6-5.4,1.7c-1.6,1.2-2.9,2.6-3.9,4.4c-1.1,1.8-1.9,3.8-2.4,5.9c-0.6,2.1-0.8,4.2-0.8,6.2c0,2.6,0.5,4.6,1.5,6.1
			C867.8,119.4,869.5,120.1,872,120.1 M879.1,82.6c-4.4,0-8.4,1-11.7,3c-3.2,1.9-5.9,4.4-8.1,7.3c-2.1,2.9-3.7,6.1-4.7,9.6
			c-1,3.4-1.5,6.8-1.5,10.1c0,5.4,1.5,9.8,4.5,13.2c3.1,3.5,7.5,5.3,13.2,5.3c4.5,0,8.5-1,11.8-3c3.3-1.9,6-4.4,8.1-7.3
			s3.6-6.1,4.6-9.7c1-3.4,1.5-6.9,1.5-10.2c0-5.4-1.5-9.8-4.6-13.2C889.2,84.4,884.7,82.6,879.1,82.6L879.1,82.6z M872,117.1
			c-1.4,0-2.3-0.3-2.7-0.9c-0.6-1-1-2.5-1-4.5c0-1.7,0.3-3.6,0.7-5.4c0.5-1.9,1.2-3.6,2.1-5.2c0.8-1.4,1.9-2.6,3.1-3.5
			c1.1-0.8,2.2-1.2,3.6-1.2c2.1,0,2.5,0.7,2.6,0.9c0.7,1,1,2.5,1,4.5c0,1.7-0.3,3.5-0.8,5.4s-1.2,3.6-2.1,5.1
			c-0.8,1.4-1.9,2.6-3.1,3.5C874.5,116.8,873.3,117.1,872,117.1L872,117.1z"/>
	</g>
	<g>
		<path d="M919.2,128.5l5.2-22.1c0.3-1.1,0.5-2.3,0.8-3.4c0.2-1.1,0.4-2.2,0.4-3.1c0-1.4-0.3-2.6-1-3.5c-0.6-0.8-2-1.2-4.1-1.2
			c-1.7,0-3.2,0.1-4.5,0.4l-7.8,32.9h-12.5l9.9-41.4l0.8-0.2c2.1-0.6,4.5-1.2,7.2-1.8c2.7-0.6,5.8-0.8,9-0.8c5.1,0,9,1.3,11.5,3.9
			s3.7,6.1,3.7,10.4c0,1.1-0.1,2.4-0.3,3.7c-0.2,1.2-0.4,2.5-0.7,3.8l-5.4,22.4H919.2z"/>
		<path class="st0" d="M922.7,85.8c4.7,0,8.2,1.2,10.4,3.5s3.3,5.4,3.3,9.3c0,1.1-0.1,2.2-0.3,3.4c-0.2,1.2-0.4,2.5-0.7,3.7
			l-5.1,21.2H921l4.8-20.2c0.3-1.1,0.5-2.3,0.8-3.5s0.4-2.3,0.5-3.4c0.1-1.8-0.4-3.3-1.3-4.5c-0.9-1.2-2.7-1.8-5.3-1.8
			c-2.2,0-4.1,0.2-5.7,0.7l-7.7,32.7h-9.4l9.3-38.7c2.1-0.6,4.4-1.2,7.1-1.7C916.6,86.1,919.5,85.8,922.7,85.8 M922.7,82.8
			c-3.3,0-6.4,0.3-9.3,0.9c-2.7,0.6-5.2,1.2-7.3,1.8l-1.7,0.5l-0.4,1.7l-9.3,38.7l-0.9,3.7h3.8h9.4h2.4l0.5-2.3l7.3-30.8
			c1-0.1,2-0.2,3.2-0.2c2,0,2.8,0.4,2.9,0.6c0.5,0.6,0.7,1.5,0.7,2.5c0,0.9-0.2,1.9-0.4,2.9c-0.3,1.2-0.5,2.3-0.8,3.4l-4.8,20.2
			l-0.9,3.7h3.8h9.3h2.4l0.6-2.3l5.1-21.2v-0.1v-0.1c0.3-1.3,0.5-2.6,0.7-3.9c0.2-1.4,0.3-2.7,0.3-3.9c0-4.7-1.4-8.5-4.2-11.4
			C932.5,84.3,928.2,82.8,922.7,82.8L922.7,82.8z"/>
	</g>
	<g>
		<path d="M931.2,141.5l1.6-2c0.9-1.2,1.8-2.4,2.7-3.6c0.8-1.2,1.6-2.5,2.2-3.8c0.7-1.4,1.3-2.9,1.9-4.5c0.6-1.6,1.1-3.4,1.5-5.4
			l9.2-38.6c0.6-2.7,1.5-5.2,2.6-7.4c1.1-2.2,2.6-4.2,4.3-5.7s3.8-2.7,6.2-3.5c2.3-0.8,5.1-1.2,8.1-1.2c2.2,0,4.2,0.2,6,0.7
			s3.1,0.9,4.1,1.4l1.4,0.6l-4.7,10l-1.4-0.6c-0.6-0.3-1.4-0.5-2.4-0.8s-2.2-0.4-3.5-0.4s-2.5,0.2-3.4,0.5c-0.9,0.4-1.6,0.9-2.3,1.5
			c-0.6,0.6-1.2,1.4-1.6,2.4c-0.4,1-0.8,2.1-1.1,3.3l-0.2,0.9h13.5L973.3,96h-13.5l-5.5,23c-0.7,2.8-1.3,5.3-1.9,7.5
			c-0.6,2.2-1.3,4.3-2.1,6.1c-0.8,1.9-1.8,3.7-2.9,5.3c-1.1,1.6-2.5,3.3-4.2,4.9l-0.5,0.5L931.2,141.5z"/>
		<path class="st0" d="M971.4,67.1c2.1,0,3.9,0.2,5.6,0.7c1.7,0.4,2.9,0.9,3.8,1.3l-3.4,7.3c-0.7-0.3-1.6-0.6-2.7-0.9
			c-1.1-0.3-2.4-0.4-3.9-0.4s-2.9,0.2-3.9,0.7c-1.1,0.4-2,1-2.8,1.8s-1.4,1.7-1.9,2.8c-0.5,1.1-0.9,2.3-1.2,3.6l-0.7,2.7h13.5
			l-1.9,7.7h-13.5l-5.7,24.2c-0.7,2.8-1.3,5.2-1.9,7.4c-0.6,2.2-1.3,4.1-2.1,5.9s-1.7,3.5-2.7,5.1c-1.1,1.6-2.4,3.1-4,4.7l-8.1-1.2
			c1-1.2,1.9-2.5,2.7-3.7c0.8-1.3,1.6-2.6,2.3-4s1.3-3,1.9-4.6c0.6-1.7,1.1-3.5,1.6-5.6l9.2-38.6c0.6-2.6,1.5-5,2.5-7.1
			c1.1-2.1,2.4-3.8,3.9-5.2c1.6-1.4,3.4-2.5,5.6-3.2C966,67.5,968.5,67.1,971.4,67.1 M971.4,64.1c-3.2,0-6.1,0.4-8.6,1.3
			c-2.6,0.9-4.8,2.2-6.7,3.9c-1.8,1.7-3.4,3.7-4.6,6.1c-1.2,2.3-2.1,4.9-2.8,7.7l-9.2,38.6c-0.4,2-0.9,3.7-1.5,5.3s-1.2,3-1.8,4.3
			s-1.3,2.5-2.1,3.7s-1.7,2.4-2.6,3.6l-3.2,4.1l5.1,0.8l8.1,1.2l1.5,0.2l1.1-1c1.7-1.7,3.2-3.4,4.4-5.2c1.2-1.7,2.2-3.6,3-5.5
			s1.6-4.1,2.2-6.3c0.6-2.2,1.2-4.7,1.9-7.5l5.2-21.9H972h2.4l0.6-2.3l1.9-7.7l0.9-3.7H974h-9.6c0.2-0.7,0.5-1.4,0.8-2.1
			c0.3-0.8,0.8-1.4,1.3-1.9s1.1-0.9,1.8-1.2c0.7-0.3,1.7-0.4,2.8-0.4c1.2,0,2.3,0.1,3.2,0.3c1.2,0.3,1.8,0.5,2.1,0.7l2.7,1.3
			l1.3-2.7l3.4-7.3l1.3-2.7l-2.7-1.3c-1.1-0.5-2.5-1-4.3-1.5C975.8,64.4,973.7,64.1,971.4,64.1L971.4,64.1z"/>
	</g>
	<g>
		<path d="M989.2,129.6c-3.1,0-5.7-0.5-8-1.3c-2.3-0.9-4.1-2.2-5.6-3.8c-1.4-1.6-2.5-3.4-3.2-5.5c-0.7-2-1-4.2-1-6.5
			c0-3.6,0.6-7.1,1.7-10.5c1.2-3.4,2.9-6.4,5.1-9c2.2-2.6,4.9-4.8,8-6.4s6.7-2.4,10.6-2.4c4.3,0,7.7,1.1,10.1,3.4
			c2.5,2.3,3.7,5.3,3.7,8.8c0,3.6-0.9,6.5-2.7,8.8c-1.7,2.2-4,3.9-6.8,5.1c-2.7,1.2-5.7,2-9.1,2.4c-2.8,0.4-5.7,0.6-8.5,0.7
			c0.1,2.5,1.1,5.2,7.4,5.2c3.3,0,6.6-0.7,9.9-2l1.9-0.8l1.1,10.6l-1,0.4c-1.3,0.6-3.1,1.2-5.5,1.8
			C994.9,129.3,992.2,129.6,989.2,129.6z M995.4,94.8c-1.3,0-2.6,0.3-3.8,0.8s-2.3,1.3-3.3,2.2c-1,1-1.8,2.1-2.6,3.5
			c-0.4,0.8-0.8,1.6-1.1,2.4c4.9-0.3,8.6-1,10.9-2c3-1.4,3.3-3.2,3.3-4.4c0-0.7-0.2-1.2-0.7-1.8C997.7,95,996.8,94.8,995.4,94.8z"/>
		<path class="st0" d="M996.8,85.6c3.9,0,6.9,1,9.1,3s3.2,4.6,3.2,7.7c0,3.2-0.8,5.9-2.4,7.9c-1.6,2-3.7,3.6-6.2,4.7
			s-5.4,1.9-8.6,2.3c-3.2,0.4-6.5,0.7-9.8,0.8c-0.1,0.1-0.1,0.2-0.1,0.3v0.8c0,4.7,3,7,8.9,7c3.5,0,7-0.7,10.5-2.2l0.8,7.6
			c-1.2,0.6-3,1.1-5.2,1.7c-2.3,0.6-4.8,0.8-7.7,0.8s-5.4-0.4-7.4-1.2c-2.1-0.8-3.7-2-5.1-3.4c-1.3-1.4-2.3-3.1-2.9-5
			c-0.6-1.9-0.9-3.9-0.9-6.1c0-3.4,0.6-6.8,1.7-10c1.1-3.2,2.7-6.1,4.8-8.6s4.6-4.5,7.5-6C989.8,86.4,993.1,85.6,996.8,85.6
			 M982.7,105.3c6.2-0.2,10.7-1,13.5-2.2c2.8-1.3,4.2-3.2,4.2-5.8c0-1-0.4-2-1.1-2.8c-0.7-0.8-2-1.2-3.9-1.2c-1.5,0-3,0.3-4.4,0.9
			s-2.6,1.5-3.7,2.5c-1.1,1.1-2,2.4-2.8,3.8C983.7,102,983.1,103.6,982.7,105.3 M996.8,82.6c-4.1,0-7.9,0.9-11.2,2.6
			s-6.1,3.9-8.5,6.7c-2.3,2.8-4.1,6-5.3,9.5s-1.8,7.2-1.8,11c0,2.5,0.4,4.8,1.1,7c0.7,2.3,1.9,4.3,3.5,6.1c1.6,1.8,3.7,3.2,6.2,4.2
			c2.4,1,5.3,1.4,8.5,1.4c3.1,0,6-0.3,8.4-0.9c2.5-0.6,4.4-1.2,5.8-1.9l2-0.9l-0.2-2.1l-0.8-7.6l-0.4-4l-3.7,1.5
			c-3.1,1.3-6.3,1.9-9.4,1.9c-3.8,0-5.2-1.1-5.6-2.2c2.3-0.1,4.7-0.4,7-0.7c3.5-0.4,6.7-1.3,9.5-2.6c3-1.3,5.4-3.2,7.3-5.6
			c2-2.5,3-5.8,3-9.7c0-4-1.4-7.3-4.2-9.9C1005.2,83.9,1001.5,82.6,996.8,82.6L996.8,82.6z M987.1,102L987.1,102
			c0.7-1.2,1.5-2.3,2.3-3.2c0.8-0.8,1.7-1.5,2.8-1.9c1-0.4,2.1-0.7,3.2-0.7c1.3,0,1.7,0.3,1.7,0.3c0.3,0.3,0.3,0.5,0.3,0.7
			c0,1-0.3,2.1-2.5,3.1C993.7,100.9,991.3,101.6,987.1,102L987.1,102z"/>
	</g>
	<g>
		<path d="M1009.5,128.5l9.9-41.2l0.8-0.3c2.2-0.7,4.6-1.4,7.2-1.9c2.6-0.6,5.5-0.8,8.5-0.8c0.7,0,1.4,0,2.2,0.1
			c0.8,0.1,1.6,0.2,2.3,0.3c0.8,0.1,1.6,0.3,2.2,0.4c0.7,0.2,1.4,0.4,1.9,0.6l1.3,0.6l-3.6,10.5l-1.4-0.5c-1-0.3-2-0.6-3.1-0.8
			c-1.1-0.2-2.4-0.3-3.9-0.3c-0.8,0-1.7,0.1-2.6,0.2c-0.5,0.1-1,0.1-1.4,0.2l-7.8,32.8h-12.5V128.5z"/>
		<path class="st0" d="M1035.9,85.8c0.6,0,1.3,0,2.1,0.1c0.8,0.1,1.5,0.2,2.3,0.3c0.7,0.1,1.4,0.2,2.1,0.4c0.6,0.2,1.2,0.3,1.7,0.5
			l-2.7,7.8c-1-0.4-2.1-0.6-3.3-0.8c-1.2-0.2-2.6-0.3-4.2-0.3c-0.9,0-1.8,0.1-2.8,0.2s-1.8,0.3-2.5,0.5l-7.8,32.6h-9.3l9.3-38.5
			c2.2-0.7,4.5-1.4,7-1.9C1030.3,86.1,1033,85.8,1035.9,85.8 M1035.9,82.8c-3.1,0-6.1,0.3-8.8,0.9c-2.6,0.6-5.1,1.2-7.3,2l-1.6,0.5
			l-0.4,1.6l-9.3,38.5l-0.9,3.7h3.8h9.3h2.4l0.5-2.3L1031,97c0.1,0,0.3,0,0.4-0.1c0.9-0.1,1.7-0.2,2.4-0.2c1.4,0,2.7,0.1,3.7,0.3
			c1,0.2,2,0.4,2.9,0.7l2.8,1l1-2.8l2.7-7.8l0.9-2.6l-2.5-1.1c-0.6-0.3-1.4-0.5-2.2-0.7c-0.7-0.2-1.5-0.3-2.4-0.4
			c-0.8-0.1-1.6-0.2-2.4-0.3C1037.4,82.8,1036.6,82.8,1035.9,82.8L1035.9,82.8z"/>
	</g>
	<g>
		<path d="M1060.4,129.6c-3.1,0-5.7-0.5-8-1.3c-2.3-0.9-4.1-2.2-5.6-3.8c-1.4-1.6-2.5-3.4-3.2-5.5c-0.7-2-1-4.2-1-6.5
			c0-3.6,0.6-7.1,1.7-10.5c1.2-3.4,2.9-6.4,5.1-9s4.9-4.8,8-6.4s6.7-2.4,10.6-2.4c4.3,0,7.7,1.1,10.1,3.4c2.5,2.3,3.7,5.3,3.7,8.8
			c0,3.6-0.9,6.5-2.7,8.8c-1.7,2.2-4,3.9-6.8,5.1c-2.7,1.2-5.7,2-9.1,2.4c-2.8,0.4-5.7,0.6-8.5,0.7c0.1,2.5,1.1,5.2,7.4,5.2
			c3.3,0,6.6-0.7,9.9-2l1.9-0.8l1.1,10.6l-1,0.4c-1.3,0.6-3.1,1.2-5.5,1.8C1066.1,129.3,1063.4,129.6,1060.4,129.6z M1066.6,94.8
			c-1.3,0-2.6,0.3-3.8,0.8c-1.2,0.5-2.3,1.3-3.3,2.2c-1,1-1.8,2.1-2.6,3.5c-0.4,0.8-0.8,1.6-1.1,2.4c4.9-0.3,8.6-1,10.9-2
			c3-1.4,3.3-3.2,3.3-4.4c0-0.7-0.2-1.2-0.7-1.8C1068.9,95,1067.9,94.8,1066.6,94.8z"/>
		<path class="st0" d="M1067.9,85.6c3.9,0,6.9,1,9.1,3s3.2,4.6,3.2,7.7c0,3.2-0.8,5.9-2.4,7.9s-3.7,3.6-6.2,4.7s-5.4,1.9-8.6,2.3
			s-6.5,0.7-9.8,0.8c-0.1,0.1-0.1,0.2-0.1,0.3v0.8c0,4.7,3,7,8.9,7c3.5,0,7-0.7,10.5-2.2l0.8,7.6c-1.2,0.6-3,1.1-5.2,1.7
			c-2.3,0.6-4.8,0.8-7.7,0.8c-2.9,0-5.4-0.4-7.4-1.2c-2.1-0.8-3.7-2-5.1-3.4c-1.3-1.4-2.3-3.1-2.9-5s-0.9-3.9-0.9-6.1
			c0-3.4,0.6-6.8,1.7-10s2.7-6.1,4.8-8.6c2.1-2.5,4.6-4.5,7.5-6C1061,86.4,1064.3,85.6,1067.9,85.6 M1053.9,105.3
			c6.2-0.2,10.7-1,13.5-2.2c2.8-1.3,4.2-3.2,4.2-5.8c0-1-0.4-2-1.1-2.8s-2-1.2-3.9-1.2c-1.5,0-3,0.3-4.4,0.9s-2.6,1.5-3.7,2.5
			c-1.1,1.1-2,2.4-2.8,3.8C1054.8,102,1054.3,103.6,1053.9,105.3 M1067.9,82.6c-4.1,0-7.9,0.9-11.2,2.6c-3.3,1.7-6.1,3.9-8.5,6.7
			c-2.3,2.8-4.1,6-5.3,9.5c-1.2,3.5-1.8,7.2-1.8,11c0,2.5,0.4,4.8,1.1,7c0.7,2.3,1.9,4.3,3.5,6.1c1.6,1.8,3.7,3.2,6.2,4.2
			c2.4,1,5.3,1.4,8.5,1.4c3.1,0,6-0.3,8.4-0.9c2.5-0.6,4.4-1.2,5.8-1.9l2-0.9l-0.2-2.1l-0.8-7.6l-0.4-4l-3.7,1.5
			c-3.1,1.3-6.3,1.9-9.4,1.9c-3.8,0-5.2-1.1-5.6-2.2c2.3-0.1,4.7-0.4,7-0.7c3.5-0.4,6.7-1.3,9.5-2.6c3-1.3,5.4-3.2,7.3-5.6
			c2-2.5,3-5.8,3-9.7c0-4-1.4-7.3-4.2-9.9C1076.4,83.9,1072.6,82.6,1067.9,82.6L1067.9,82.6z M1058.3,102L1058.3,102
			c0.7-1.2,1.5-2.3,2.3-3.2c0.8-0.8,1.7-1.5,2.8-1.9c1-0.4,2.1-0.7,3.2-0.7c1.3,0,1.7,0.3,1.7,0.3c0.3,0.3,0.3,0.5,0.3,0.7
			c0,1-0.3,2.1-2.5,3.1C1064.8,100.9,1062.5,101.6,1058.3,102L1058.3,102z"/>
	</g>
	<g>
		<path d="M1104.1,128.5l5.2-22.1c0.3-1.1,0.5-2.3,0.8-3.4c0.2-1.1,0.4-2.2,0.4-3.1c0-1.4-0.3-2.6-1-3.5c-0.6-0.8-2-1.2-4.1-1.2
			c-1.7,0-3.2,0.1-4.5,0.4l-7.8,32.9h-12.5l9.9-41.4l0.8-0.2c2.1-0.6,4.5-1.2,7.2-1.8c2.7-0.6,5.8-0.8,9-0.8c5.1,0,9,1.3,11.5,3.9
			s3.7,6.1,3.7,10.4c0,1.1-0.1,2.4-0.3,3.7c-0.2,1.2-0.4,2.5-0.7,3.8l-5.4,22.4H1104.1z"/>
		<path class="st0" d="M1107.6,85.8c4.7,0,8.2,1.2,10.4,3.5c2.2,2.3,3.3,5.4,3.3,9.3c0,1.1-0.1,2.2-0.3,3.4
			c-0.2,1.2-0.4,2.5-0.7,3.7l-5.1,21.2h-9.3l4.8-20.2c0.3-1.1,0.5-2.3,0.8-3.5s0.4-2.3,0.5-3.4c0.1-1.8-0.4-3.3-1.3-4.5
			s-2.7-1.8-5.3-1.8c-2.2,0-4.1,0.2-5.7,0.7L1092,127h-9.4l9.3-38.7c2.1-0.6,4.4-1.2,7.1-1.7C1101.6,86.1,1104.5,85.8,1107.6,85.8
			 M1107.6,82.8c-3.3,0-6.4,0.3-9.3,0.9c-2.7,0.6-5.2,1.2-7.3,1.8l-1.7,0.5l-0.4,1.7l-9.3,38.7l-0.9,3.7h3.8h9.4h2.4l0.5-2.3
			l7.3-30.8c1-0.1,2-0.2,3.2-0.2c2,0,2.8,0.4,2.9,0.6c0.5,0.6,0.7,1.5,0.7,2.5c0,0.9-0.2,1.9-0.4,2.9c-0.3,1.2-0.5,2.3-0.8,3.4
			l-4.8,20.2l-0.9,3.7h3.8h9.3h2.4l0.6-2.3l5.1-21.2v-0.1v-0.1c0.3-1.3,0.5-2.6,0.7-3.9c0.2-1.4,0.3-2.7,0.3-3.9
			c0-4.7-1.4-8.5-4.2-11.4C1117.4,84.3,1113.2,82.8,1107.6,82.8L1107.6,82.8z"/>
	</g>
	<g>
		<path d="M1144.4,129.6c-3,0-5.7-0.5-7.9-1.4c-2.3-0.9-4.2-2.2-5.7-3.8c-1.5-1.6-2.6-3.5-3.3-5.7c-0.7-2.1-1-4.4-1-6.9
			c0-3.7,0.6-7.2,1.7-10.5c1.2-3.3,2.9-6.3,5-8.8c2.2-2.5,4.9-4.6,8.1-6.1s6.8-2.2,10.8-2.2c2.1,0,4,0.2,5.8,0.5
			c1.8,0.4,3.5,0.9,5.1,1.6l1.4,0.6l-4.5,10.2l-1.4-0.6c-0.9-0.4-1.8-0.7-2.9-1c-1-0.3-2.3-0.4-3.8-0.4c-2,0-3.7,0.4-5.3,1.2
			c-1.6,0.8-2.9,1.9-4,3.3s-2,3.1-2.6,5c-0.6,2-0.9,4.1-0.9,6.3c0,1.2,0.1,2.3,0.4,3.3c0.2,0.9,0.6,1.7,1.1,2.4
			c0.5,0.6,1.1,1.1,2,1.5s2.2,0.6,3.7,0.6c1.6,0,3.2-0.2,4.6-0.6c1.5-0.4,2.7-0.9,3.5-1.3l2-1l1.1,10.9l-1,0.5
			c-1.3,0.6-2.9,1.2-5,1.8C1149.3,129.3,1147,129.6,1144.4,129.6z"/>
		<path class="st0" d="M1152.1,85.6c2,0,3.8,0.2,5.5,0.5s3.3,0.8,4.7,1.5l-3.3,7.5c-0.9-0.4-2-0.8-3.1-1.1c-1.1-0.3-2.5-0.5-4.2-0.5
			c-2.2,0-4.2,0.5-6,1.4s-3.3,2.1-4.5,3.7c-1.2,1.5-2.2,3.4-2.9,5.5c-0.7,2.1-1,4.3-1,6.7c0,1.3,0.1,2.6,0.4,3.7s0.7,2.1,1.4,2.9
			c0.6,0.8,1.5,1.5,2.7,2c1.1,0.5,2.5,0.7,4.2,0.7s3.4-0.2,5.1-0.7c1.6-0.5,2.9-0.9,3.7-1.4l0.8,7.6c-1.2,0.6-2.8,1.1-4.7,1.7
			c-2,0.5-4.2,0.8-6.6,0.8c-2.8,0-5.3-0.4-7.3-1.3c-2.1-0.8-3.8-2-5.1-3.5c-1.4-1.5-2.4-3.2-3-5.2s-1-4.1-1-6.4
			c0-3.5,0.6-6.8,1.7-10s2.7-5.9,4.7-8.3c2.1-2.4,4.6-4.3,7.6-5.7C1144.9,86.3,1148.3,85.6,1152.1,85.6 M1152.1,82.6
			c-4.2,0-8.1,0.8-11.5,2.4s-6.2,3.7-8.6,6.4c-2.3,2.7-4.1,5.8-5.3,9.3c-1.2,3.5-1.8,7.2-1.8,11c0,2.6,0.4,5.1,1.1,7.4
			c0.8,2.4,2,4.5,3.7,6.3s3.7,3.2,6.2,4.2c2.4,1,5.3,1.5,8.5,1.5c2.7,0,5.2-0.3,7.4-0.9c2.2-0.6,3.9-1.2,5.2-1.8l1.9-0.9l-0.2-2.1
			l-0.8-7.6l-0.4-4.4l-3.9,2.1c-0.5,0.3-1.4,0.7-3.2,1.2c-1.3,0.4-2.8,0.6-4.2,0.6c-1.3,0-2.3-0.2-3.1-0.5c-0.6-0.3-1.1-0.6-1.4-1
			c-0.4-0.5-0.7-1.1-0.9-1.9c-0.2-0.9-0.3-1.8-0.3-2.9c0-2,0.3-4,0.9-5.8c0.6-1.7,1.3-3.3,2.3-4.5s2.1-2.2,3.5-2.9
			c1.4-0.7,2.9-1,4.6-1c1.4,0,2.5,0.1,3.4,0.4c1,0.3,1.9,0.6,2.7,0.9l2.7,1.2l1.2-2.7l3.3-7.5l1.2-2.7l-2.7-1.2
			c-1.7-0.8-3.5-1.3-5.4-1.7C1156.3,82.8,1154.3,82.6,1152.1,82.6L1152.1,82.6z"/>
	</g>
	<g>
		<path d="M1178.8,129.6c-3.1,0-5.7-0.5-8-1.3c-2.3-0.9-4.1-2.2-5.6-3.8c-1.4-1.6-2.5-3.4-3.2-5.5c-0.7-2-1-4.2-1-6.5
			c0-3.6,0.6-7.1,1.7-10.5c1.2-3.4,2.9-6.4,5.1-9s4.9-4.8,8-6.4s6.7-2.4,10.6-2.4c4.3,0,7.7,1.1,10.1,3.4c2.5,2.3,3.7,5.3,3.7,8.8
			c0,3.6-0.9,6.5-2.7,8.8c-1.7,2.2-4,3.9-6.8,5.1c-2.7,1.2-5.7,2-9.1,2.4c-2.8,0.4-5.7,0.6-8.5,0.7c0.1,2.5,1.1,5.2,7.4,5.2
			c3.3,0,6.6-0.7,9.9-2l1.9-0.8l1.1,10.6l-1,0.4c-1.3,0.6-3.1,1.2-5.5,1.8C1184.5,129.3,1181.8,129.6,1178.8,129.6z M1185,94.8
			c-1.3,0-2.6,0.3-3.8,0.8c-1.2,0.5-2.3,1.3-3.3,2.2c-1,1-1.8,2.1-2.6,3.5c-0.4,0.8-0.8,1.6-1.1,2.4c4.9-0.3,8.6-1,10.9-2
			c3-1.4,3.3-3.2,3.3-4.4c0-0.7-0.2-1.2-0.7-1.8C1187.3,95,1186.3,94.8,1185,94.8z"/>
		<path class="st0" d="M1186.4,85.6c3.9,0,6.9,1,9.1,3s3.2,4.6,3.2,7.7c0,3.2-0.8,5.9-2.4,7.9s-3.7,3.6-6.2,4.7s-5.4,1.9-8.6,2.3
			s-6.5,0.7-9.8,0.8c-0.1,0.1-0.1,0.2-0.1,0.3v0.8c0,4.7,3,7,8.9,7c3.5,0,7-0.7,10.5-2.2l0.8,7.6c-1.2,0.6-3,1.1-5.2,1.7
			c-2.3,0.6-4.8,0.8-7.7,0.8c-2.9,0-5.4-0.4-7.4-1.2c-2.1-0.8-3.7-2-5.1-3.4c-1.3-1.4-2.3-3.1-2.9-5s-0.9-3.9-0.9-6.1
			c0-3.4,0.6-6.8,1.7-10s2.7-6.1,4.8-8.6c2.1-2.5,4.6-4.5,7.5-6C1179.4,86.4,1182.7,85.6,1186.4,85.6 M1172.3,105.3
			c6.2-0.2,10.7-1,13.5-2.2c2.8-1.3,4.2-3.2,4.2-5.8c0-1-0.4-2-1.1-2.8s-2-1.2-3.9-1.2c-1.5,0-3,0.3-4.4,0.9s-2.6,1.5-3.7,2.5
			c-1.1,1.1-2,2.4-2.8,3.8C1173.2,102,1172.7,103.6,1172.3,105.3 M1186.4,82.6c-4.1,0-7.9,0.9-11.2,2.6c-3.3,1.7-6.1,3.9-8.5,6.7
			c-2.3,2.8-4.1,6-5.3,9.5c-1.2,3.5-1.8,7.2-1.8,11c0,2.5,0.4,4.8,1.1,7c0.7,2.3,1.9,4.3,3.5,6.1c1.6,1.8,3.7,3.2,6.2,4.2
			c2.4,1,5.3,1.4,8.5,1.4c3.1,0,6-0.3,8.4-0.9c2.5-0.6,4.4-1.2,5.8-1.9l2-0.9l-0.2-2.1l-0.8-7.6l-0.4-4l-3.7,1.5
			c-3.1,1.3-6.3,1.9-9.4,1.9c-3.8,0-5.2-1.1-5.6-2.2c2.3-0.1,4.7-0.4,7-0.7c3.5-0.4,6.7-1.3,9.5-2.6c3-1.3,5.4-3.2,7.3-5.6
			c2-2.5,3-5.8,3-9.7c0-4-1.4-7.3-4.2-9.9C1194.8,83.9,1191,82.6,1186.4,82.6L1186.4,82.6z M1176.7,102L1176.7,102
			c0.7-1.2,1.5-2.3,2.3-3.2c0.8-0.8,1.7-1.5,2.8-1.9c1-0.4,2.1-0.7,3.2-0.7c1.3,0,1.7,0.3,1.7,0.3c0.3,0.3,0.3,0.5,0.3,0.7
			c0,1-0.3,2.1-2.5,3.1C1183.2,100.9,1180.9,101.6,1176.7,102L1176.7,102z"/>
	</g>
	<g>
		<path d="M1212.6,129.6c-2,0-3.8-0.1-5.4-0.4c-1.6-0.3-3-0.6-4.2-0.9c-1.2-0.4-2.2-0.7-3.1-1.1c-0.8-0.4-1.5-0.7-1.9-1l-1.1-0.7
			l4.5-10l1.4,0.8c0.3,0.2,0.8,0.4,1.5,0.8c0.6,0.3,1.4,0.6,2.2,0.9c0.8,0.3,1.8,0.5,2.8,0.8c1,0.2,2.1,0.3,3.2,0.3
			c2.2,0,3.9-0.3,5.1-1c1-0.5,1.4-1.3,1.4-2.4c0-0.9-0.3-1.6-0.9-2.1s-1.8-1.3-4.5-2.6c-1.3-0.6-2.5-1.2-3.6-1.8
			c-1.2-0.7-2.2-1.5-3.1-2.4s-1.6-2.1-2.1-3.3c-0.5-1.3-0.8-2.8-0.8-4.6c0-4.5,1.7-8.1,5-10.7c3.2-2.6,7.8-3.9,13.7-3.9
			c2.7,0,5.1,0.3,7.3,0.9c2.2,0.6,3.8,1.2,4.9,1.8l1.2,0.7l-4.6,10l-1.4-0.8c-0.8-0.5-1.9-0.9-3.5-1.4c-1.5-0.4-3.1-0.7-4.7-0.7
			c-0.8,0-1.6,0.1-2.3,0.2c-0.7,0.1-1.3,0.3-1.8,0.6c-0.5,0.2-0.8,0.6-1.1,1c-0.3,0.4-0.4,0.9-0.4,1.5c0,0.7,0.3,1.3,0.9,1.7
			c0.9,0.7,2.1,1.4,3.8,2.2c1.7,0.8,3.2,1.6,4.5,2.3c1.3,0.8,2.4,1.7,3.3,2.7s1.6,2.2,2,3.5s0.6,2.8,0.6,4.4c0,2.1-0.4,4.1-1.3,5.9
			s-2.1,3.4-3.8,4.7c-1.6,1.3-3.6,2.3-5.9,3C1218.2,129.2,1215.5,129.6,1212.6,129.6z"/>
		<path class="st0" d="M1222.9,85.6c2.6,0,4.9,0.3,6.9,0.8s3.6,1.1,4.6,1.7l-3.3,7.3c-0.9-0.5-2.1-1-3.8-1.5
			c-1.6-0.5-3.4-0.7-5.2-0.7c-0.9,0-1.7,0.1-2.6,0.2c-0.8,0.2-1.6,0.4-2.3,0.8c-0.7,0.4-1.2,0.9-1.7,1.5c-0.4,0.6-0.7,1.4-0.7,2.4
			c0,1.2,0.5,2.1,1.4,2.9c1,0.7,2.3,1.5,4.1,2.4c1.7,0.8,3.1,1.5,4.3,2.2c1.2,0.7,2.2,1.5,2.9,2.4c0.8,0.9,1.3,1.9,1.7,3
			c0.4,1.1,0.5,2.4,0.5,4c0,1.9-0.4,3.7-1.2,5.3c-0.8,1.6-1.9,3-3.4,4.2s-3.3,2.1-5.4,2.7c-2.2,0.7-4.6,1-7.4,1
			c-1.9,0-3.6-0.1-5.1-0.4c-1.5-0.3-2.8-0.6-4-0.9s-2.1-0.7-2.9-1c-0.8-0.4-1.4-0.7-1.8-0.9l3.3-7.3c0.4,0.2,0.9,0.5,1.6,0.8
			s1.5,0.7,2.4,1s1.9,0.6,3,0.8c1.1,0.2,2.3,0.3,3.5,0.3c2.5,0,4.4-0.4,5.9-1.2c1.4-0.8,2.2-2,2.2-3.7c0-1.3-0.5-2.4-1.4-3.2
			c-0.9-0.8-2.5-1.7-4.9-2.8c-1.2-0.6-2.4-1.2-3.4-1.8c-1.1-0.6-2-1.3-2.7-2.2c-0.8-0.8-1.4-1.8-1.9-2.9s-0.7-2.4-0.7-4
			c0-4,1.5-7.2,4.4-9.6C1213.1,86.8,1217.3,85.6,1222.9,85.6 M1222.9,82.6c-6.2,0-11.2,1.4-14.6,4.2c-3.7,3-5.5,7-5.5,11.9
			c0,1.9,0.3,3.7,0.9,5.1s1.4,2.7,2.4,3.8c1,1,2.1,1.9,3.4,2.7c1.1,0.7,2.4,1.3,3.7,1.9c2.7,1.2,3.8,2,4.2,2.4
			c0.2,0.2,0.3,0.3,0.3,0.9s-0.1,0.8-0.6,1c-1,0.5-2.5,0.8-4.4,0.8c-1,0-2-0.1-2.9-0.3c-1-0.2-1.9-0.4-2.7-0.7
			c-0.8-0.3-1.5-0.5-2.1-0.8c-0.8-0.4-1.2-0.6-1.4-0.7l-2.9-1.6l-1.4,3l-3.3,7.3l-1.1,2.4l2.2,1.4c0.5,0.3,1.2,0.7,2.1,1.1
			s2,0.8,3.3,1.2c1.2,0.4,2.7,0.7,4.3,1c1.7,0.3,3.6,0.4,5.6,0.4c3.1,0,5.9-0.4,8.3-1.1c2.5-0.8,4.7-1.9,6.4-3.3
			c1.8-1.4,3.2-3.2,4.2-5.2s1.4-4.2,1.4-6.6c0-1.8-0.2-3.5-0.7-4.9c-0.5-1.5-1.2-2.8-2.3-4c-1-1.1-2.2-2.2-3.6-3
			c-1.3-0.8-2.9-1.6-4.6-2.4c-2-0.9-3-1.6-3.5-2c-0.3-0.2-0.3-0.3-0.3-0.5s0-0.5,0.1-0.7c0.2-0.2,0.4-0.4,0.6-0.5
			c0.4-0.2,0.9-0.4,1.4-0.5c0.7-0.1,1.4-0.2,2-0.2c1.5,0,3,0.2,4.3,0.6c1.7,0.5,2.7,0.9,3.1,1.2l2.9,1.7l1.4-3l3.3-7.3l1.2-2.5
			l-2.4-1.3c-1.3-0.7-3-1.3-5.3-1.9C1228.3,82.9,1225.7,82.6,1222.9,82.6L1222.9,82.6z"/>
	</g>
</g>
</svg>
